<svg width="173" height="50" viewBox="0 0 173 50" fill="none" xmlns="http://www.w3.org/2000/svg">
<g clip-path="url(#clip0_45_2)">
<rect width="173" height="50" rx="25" fill="url(#paint0_linear_45_2)"/>
<path d="M-92.1279 35.4619C-90.2612 35.4619 -88.8047 35.9592 -87.7588 36.9521C-86.6997 37.9319 -86.0644 39.2557 -85.8525 40.9238H-88.9111C-88.9773 40.4738 -89.0893 40.0766 -89.248 39.7324C-89.4069 39.3751 -89.6191 39.0771 -89.8838 38.8389C-90.1353 38.5873 -90.4467 38.4014 -90.8174 38.2822C-91.188 38.1499 -91.6249 38.084 -92.1279 38.084C-93.0282 38.084 -93.77 38.3086 -94.3525 38.7588C-94.9219 39.1957 -95.3387 39.7723 -95.6035 40.4873C-95.8682 41.1888 -96.001 41.93 -96.001 42.7109C-96.001 43.5053 -95.8683 44.2606 -95.6035 44.9756C-95.3387 45.6771 -94.9217 46.253 -94.3525 46.7031C-93.77 47.1533 -93.0283 47.3779 -92.1279 47.3779C-91.5719 47.3779 -91.0954 47.2985 -90.6982 47.1396C-90.3011 46.9808 -89.9699 46.7561 -89.7051 46.4648C-89.427 46.1736 -89.215 45.8226 -89.0693 45.4121C-88.9237 45.0017 -88.8317 44.5378 -88.792 44.0215H-85.7725C-85.8651 45.2131 -86.1702 46.2598 -86.6865 47.1602C-87.1896 48.0603 -87.8981 48.7616 -88.8115 49.2646C-89.7118 49.7545 -90.8172 50 -92.1279 50C-93.5976 50 -94.8491 49.6751 -95.8818 49.0264C-96.901 48.3645 -97.6755 47.4844 -98.2051 46.3857C-98.7347 45.2868 -99 44.0614 -99 42.7109C-99 41.7181 -98.8537 40.7849 -98.5625 39.9111C-98.258 39.0241 -97.815 38.2489 -97.2324 37.5869C-96.6499 36.9249 -95.9343 36.4088 -95.0869 36.0381C-94.2264 35.6542 -93.24 35.4619 -92.1279 35.4619ZM-77.7959 35.4619C-76.697 35.4619 -75.7233 35.6541 -74.876 36.0381C-74.0154 36.4088 -73.2935 36.9249 -72.7109 37.5869C-72.1284 38.2489 -71.6917 39.0241 -71.4004 39.9111C-71.096 40.7848 -70.9434 41.7181 -70.9434 42.7109C-70.9434 44.0614 -71.2087 45.2868 -71.7383 46.3857C-72.2678 47.4844 -73.0423 48.3645 -74.0615 49.0264C-75.081 49.6751 -76.3263 50 -77.7959 50C-79.2654 49.9999 -80.5162 49.6751 -81.5488 49.0264C-82.5682 48.3644 -83.3434 47.4846 -83.873 46.3857C-84.4026 45.2868 -84.667 44.0614 -84.667 42.7109C-84.667 41.7181 -84.5217 40.7848 -84.2305 39.9111C-83.9259 39.0241 -83.482 38.2489 -82.8994 37.5869C-82.3169 36.9251 -81.6021 36.4088 -80.7549 36.0381C-79.8944 35.6542 -78.9079 35.462 -77.7959 35.4619ZM-50.2031 35.4619C-49.1705 35.4619 -48.25 35.6677 -47.4424 36.0781C-46.635 36.4885 -45.9995 37.0509 -45.5361 37.7656C-45.0596 38.4805 -44.8214 39.2883 -44.8213 40.1885H-47.8398C-47.8929 39.5267 -48.1248 39.0103 -48.5352 38.6396C-48.9324 38.269 -49.5217 38.084 -50.3027 38.084C-51.0706 38.084 -51.6599 38.223 -52.0703 38.501C-52.4806 38.779 -52.6855 39.1301 -52.6855 39.5537C-52.6855 39.9508 -52.5402 40.2623 -52.249 40.4873C-51.9578 40.7123 -51.5733 40.8973 -51.0967 41.043C-50.6069 41.1886 -50.077 41.3276 -49.5078 41.46C-48.9254 41.5791 -48.3495 41.7317 -47.7803 41.917C-47.211 42.1023 -46.6875 42.3541 -46.2109 42.6719C-45.7214 42.9895 -45.3312 43.4131 -45.04 43.9424C-44.7488 44.4587 -44.6025 45.1211 -44.6025 45.9287C-44.6026 47.2129 -45.0863 48.2128 -46.0527 48.9277C-47.0192 49.6425 -48.3765 50 -50.124 50C-51.1964 50 -52.1566 49.7942 -53.0039 49.3838C-53.851 48.9734 -54.5263 48.4111 -55.0293 47.6963C-55.5324 46.9813 -55.804 46.1665 -55.8438 45.2529H-52.8047C-52.7517 45.6899 -52.5992 46.068 -52.3477 46.3857C-52.0962 46.7032 -51.772 46.9481 -51.375 47.1201C-50.9646 47.2922 -50.5079 47.3779 -50.0049 47.3779C-49.3298 47.3779 -48.7602 47.266 -48.2969 47.041C-47.8335 46.8027 -47.6016 46.4317 -47.6016 45.9287C-47.6016 45.5713 -47.7469 45.286 -48.0381 45.0742C-48.3293 44.8624 -48.7203 44.691 -49.21 44.5586C-49.6866 44.4262 -50.21 44.2935 -50.7793 44.1611C-51.3485 44.0288 -51.9244 43.8699 -52.5068 43.6846C-53.0762 43.486 -53.6058 43.2206 -54.0957 42.8896C-54.5723 42.5587 -54.9568 42.1282 -55.248 41.5986C-55.5391 41.0559 -55.6845 40.3742 -55.6846 39.5537C-55.6846 38.7593 -55.4527 38.0573 -54.9893 37.4482C-54.5126 36.826 -53.8638 36.3423 -53.043 35.998C-52.2089 35.6407 -51.2622 35.4619 -50.2031 35.4619ZM-36.4854 35.4619C-34.6185 35.4619 -33.1622 35.9592 -32.1162 36.9521C-31.057 37.9319 -30.4208 39.2556 -30.209 40.9238H-33.2676C-33.3338 40.4737 -33.4466 40.0766 -33.6055 39.7324C-33.7643 39.3749 -33.9764 39.0772 -34.2412 38.8389C-34.4927 38.5874 -34.8033 38.4014 -35.1738 38.2822C-35.5445 38.1498 -35.9822 38.084 -36.4854 38.084C-37.3853 38.084 -38.1265 38.3089 -38.709 38.7588C-39.2783 39.1957 -39.6961 39.7723 -39.9609 40.4873C-40.2256 41.1888 -40.3574 41.9301 -40.3574 42.7109C-40.3574 43.5053 -40.2257 44.2606 -39.9609 44.9756C-39.6961 45.6772 -39.2783 46.253 -38.709 46.7031C-38.1265 47.1531 -37.3854 47.3779 -36.4854 47.3779C-35.9293 47.3779 -35.4519 47.2985 -35.0547 47.1396C-34.6578 46.9808 -34.3272 46.7559 -34.0625 46.4648C-33.7845 46.1736 -33.5724 45.8225 -33.4268 45.4121C-33.2811 45.0017 -33.1882 44.5378 -33.1484 44.0215H-30.1299C-30.2226 45.2131 -30.5266 46.2598 -31.043 47.1602C-31.546 48.0603 -32.2547 48.7616 -33.168 49.2646C-34.0683 49.7545 -35.1746 50 -36.4854 50C-37.9548 49.9999 -39.2057 49.6751 -40.2383 49.0264C-41.2577 48.3644 -42.0329 47.4845 -42.5625 46.3857C-43.0921 45.2868 -43.3564 44.0614 -43.3564 42.7109C-43.3564 41.7181 -43.2111 40.7848 -42.9199 39.9111C-42.6154 39.0241 -42.1714 38.2489 -41.5889 37.5869C-41.0064 36.9251 -40.2915 36.4087 -39.4443 36.0381C-38.5838 35.6542 -37.5974 35.462 -36.4854 35.4619ZM8.21973 35.4619C10.0864 35.462 11.543 35.9592 12.5889 36.9521C13.6479 37.9319 14.2833 39.2557 14.4951 40.9238H11.4365C11.3703 40.4738 11.2584 40.0766 11.0996 39.7324C10.9408 39.3751 10.7285 39.0771 10.4639 38.8389C10.2123 38.5873 9.90099 38.4014 9.53027 38.2822C9.15962 38.1499 8.72273 38.084 8.21973 38.084C7.31945 38.084 6.57766 38.3087 5.99512 38.7588C5.4258 39.1957 5.00894 39.7723 4.74414 40.4873C4.47945 41.1889 4.34671 41.93 4.34668 42.7109C4.34668 43.5053 4.47934 44.2606 4.74414 44.9756C5.00895 45.6771 5.4259 46.253 5.99512 46.7031C6.57767 47.1533 7.31942 47.3779 8.21973 47.3779C8.7757 47.3779 9.25228 47.2985 9.64941 47.1396C10.0466 46.9808 10.3778 46.7561 10.6426 46.4648C10.9206 46.1736 11.1327 45.8225 11.2783 45.4121C11.4239 45.0017 11.5159 44.5378 11.5557 44.0215H14.5742C14.4815 45.2131 14.1775 46.2598 13.6611 47.1602C13.1581 48.0603 12.4495 48.7616 11.5361 49.2646C10.6359 49.7545 9.53037 50 8.21973 50C6.75008 50 5.49854 49.6751 4.46582 49.0264C3.44659 48.3645 2.67214 47.4844 2.14258 46.3857C1.61298 45.2868 1.34766 44.0614 1.34766 42.7109C1.34768 41.7181 1.49392 40.7849 1.78516 39.9111C2.08968 39.0241 2.53267 38.2489 3.11523 37.5869C3.69778 36.925 4.41342 36.4088 5.26074 36.0381C6.12125 35.6542 7.10773 35.4619 8.21973 35.4619ZM38.9912 35.4619C40.858 35.4619 42.3144 35.9592 43.3604 36.9521C44.4196 37.9319 45.0557 39.2556 45.2676 40.9238H42.209C42.1428 40.4737 42.0299 40.0766 41.8711 39.7324C41.7122 39.3749 41.5002 39.0772 41.2354 38.8389C40.9839 38.5874 40.6733 38.4014 40.3027 38.2822C39.932 38.1498 39.4943 38.084 38.9912 38.084C38.0912 38.084 37.35 38.3089 36.7676 38.7588C36.1983 39.1957 35.7804 39.7723 35.5156 40.4873C35.251 41.1888 35.1192 41.9301 35.1191 42.7109C35.1191 43.5053 35.2508 44.2606 35.5156 44.9756C35.7804 45.6772 36.1983 46.253 36.7676 46.7031C37.35 47.1531 38.0912 47.3779 38.9912 47.3779C39.5473 47.3779 40.0247 47.2985 40.4219 47.1396C40.8188 46.9808 41.1494 46.7559 41.4141 46.4648C41.6921 46.1736 41.9042 45.8225 42.0498 45.4121C42.1954 45.0017 42.2884 44.5378 42.3281 44.0215H45.3467C45.254 45.2131 44.95 46.2598 44.4336 47.1602C43.9306 48.0603 43.2219 48.7616 42.3086 49.2646C41.4083 49.7545 40.302 50 38.9912 50C37.5218 49.9999 36.2709 49.6751 35.2383 49.0264C34.2189 48.3644 33.4437 47.4846 32.9141 46.3857C32.3845 45.2868 32.1201 44.0614 32.1201 42.7109C32.1201 41.7181 32.2654 40.7848 32.5566 39.9111C32.8612 39.0241 33.3051 38.2489 33.8877 37.5869C34.4702 36.9251 35.185 36.4088 36.0322 36.0381C36.8927 35.6542 37.8792 35.462 38.9912 35.4619ZM53.3242 35.4619C54.4229 35.4619 55.3959 35.6543 56.2432 36.0381C57.1036 36.4088 57.8257 36.925 58.4082 37.5869C58.9908 38.2489 59.4275 39.0241 59.7188 39.9111C60.0232 40.7849 60.1758 41.7181 60.1758 42.7109C60.1758 44.0614 59.9114 45.2868 59.3818 46.3857C58.8522 47.4845 58.077 48.3644 57.0576 49.0264C56.0382 49.6751 54.7938 50 53.3242 50C51.8546 50 50.603 49.6751 49.5703 49.0264C48.5511 48.3645 47.7766 47.4843 47.2471 46.3857C46.7175 45.2868 46.4521 44.0614 46.4521 42.7109C46.4522 41.7181 46.5984 40.7849 46.8896 39.9111C47.1942 39.0241 47.6372 38.2489 48.2197 37.5869C48.8023 36.9249 49.5179 36.4088 50.3652 36.0381C51.2258 35.6542 52.2121 35.4619 53.3242 35.4619ZM80.916 35.4619C81.9487 35.4619 82.8691 35.6677 83.6768 36.0781C84.4844 36.4886 85.1206 37.0507 85.584 37.7656C86.0605 38.4805 86.2987 39.2883 86.2988 40.1885H83.2793C83.2263 39.5268 82.9953 39.0103 82.585 38.6396C82.1878 38.269 81.5984 38.084 80.8174 38.084C80.0495 38.084 79.4602 38.223 79.0498 38.501C78.6394 38.779 78.4336 39.13 78.4336 39.5537C78.4337 39.9508 78.5799 40.2623 78.8711 40.4873C79.1623 40.7122 79.5461 40.8974 80.0225 41.043C80.5123 41.1886 81.0421 41.3276 81.6113 41.46C82.1938 41.5791 82.7697 41.7317 83.3389 41.917C83.9082 42.1024 84.4316 42.3541 84.9082 42.6719C85.398 42.9896 85.7888 43.4129 86.0801 43.9424C86.3714 44.4587 86.5166 45.1211 86.5166 45.9287C86.5165 47.2129 86.0339 48.2128 85.0674 48.9277C84.1009 49.6426 82.7436 50 80.9961 50C79.9237 50 78.9636 49.7942 78.1162 49.3838C77.269 48.9734 76.5939 48.4111 76.0908 47.6963C75.5877 46.9813 75.3161 46.1665 75.2764 45.2529H78.3145C78.3674 45.6899 78.5199 46.068 78.7715 46.3857C79.023 46.7034 79.348 46.948 79.7451 47.1201C80.1555 47.2921 80.6123 47.3779 81.1152 47.3779C81.7904 47.3779 82.3599 47.2661 82.8232 47.041C83.2865 46.8027 83.5185 46.4317 83.5186 45.9287C83.5186 45.5712 83.3723 45.2861 83.0811 45.0742C82.7898 44.8624 82.3989 44.691 81.9092 44.5586C81.4327 44.4262 80.91 44.2935 80.3408 44.1611C79.7715 44.0287 79.1949 43.8699 78.6123 43.6846C78.0431 43.486 77.5133 43.2206 77.0234 42.8896C76.547 42.5587 76.1633 42.1281 75.8721 41.5986C75.5809 41.0559 75.4346 40.3743 75.4346 39.5537C75.4346 38.7594 75.6665 38.0573 76.1299 37.4482C76.6065 36.826 77.2553 36.3423 78.0762 35.998C78.9102 35.6406 79.857 35.462 80.916 35.4619ZM94.6348 35.4619C96.5016 35.4619 97.958 35.9592 99.0039 36.9521C100.063 37.9319 100.698 39.2557 100.91 40.9238H97.8516C97.7854 40.4738 97.6735 40.0766 97.5146 39.7324C97.3558 39.375 97.1436 39.0772 96.8789 38.8389C96.6273 38.5873 96.316 38.4014 95.9453 38.2822C95.5746 38.1499 95.1378 38.084 94.6348 38.084C93.7344 38.084 92.9927 38.3086 92.4102 38.7588C91.8408 39.1957 91.424 39.7723 91.1592 40.4873C90.8945 41.1888 90.7617 41.93 90.7617 42.7109C90.7617 43.5053 90.8944 44.2606 91.1592 44.9756C91.424 45.6771 91.841 46.253 92.4102 46.7031C92.9927 47.1533 93.7344 47.3779 94.6348 47.3779C95.1908 47.3779 95.6673 47.2985 96.0645 47.1396C96.4616 46.9808 96.7928 46.7561 97.0576 46.4648C97.3357 46.1736 97.5477 45.8226 97.6934 45.4121C97.839 45.0017 97.931 44.5378 97.9707 44.0215H100.99C100.898 45.2131 100.593 46.2598 100.076 47.1602C99.5731 48.0603 98.8646 48.7616 97.9512 49.2646C97.0509 49.7545 95.9455 50 94.6348 50C93.1651 50 91.9136 49.6751 90.8809 49.0264C89.8617 48.3645 89.0872 47.4844 88.5576 46.3857C88.028 45.2868 87.7627 44.0614 87.7627 42.7109C87.7627 41.7181 87.909 40.7849 88.2002 39.9111C88.5047 39.0241 88.9477 38.2489 89.5303 37.5869C90.1128 36.9249 90.8284 36.4088 91.6758 36.0381C92.5363 35.6542 93.5227 35.4619 94.6348 35.4619ZM139.339 35.4619C141.206 35.4619 142.662 35.9591 143.708 36.9521C144.767 37.9319 145.403 39.2556 145.615 40.9238H142.557C142.49 40.4737 142.378 40.0766 142.219 39.7324C142.06 39.375 141.848 39.0772 141.583 38.8389C141.331 38.5873 141.02 38.4014 140.649 38.2822C140.279 38.1499 139.842 38.084 139.339 38.084C138.439 38.084 137.698 38.3089 137.115 38.7588C136.546 39.1957 136.128 39.7723 135.863 40.4873C135.599 41.1888 135.467 41.9301 135.467 42.7109C135.467 43.5053 135.598 44.2606 135.863 44.9756C136.128 45.6772 136.546 46.253 137.115 46.7031C137.698 47.1531 138.439 47.3779 139.339 47.3779C139.895 47.3779 140.372 47.2985 140.77 47.1396C141.166 46.9808 141.497 46.7559 141.762 46.4648C142.04 46.1736 142.252 45.8225 142.397 45.4121C142.543 45.0017 142.636 44.5378 142.676 44.0215H145.694C145.602 45.2131 145.298 46.2598 144.781 47.1602C144.278 48.0604 143.569 48.7615 142.655 49.2646C141.755 49.7544 140.65 50 139.339 50C137.869 50 136.619 49.675 135.586 49.0264C134.567 48.3644 133.791 47.4845 133.262 46.3857C132.732 45.2868 132.468 44.0614 132.468 42.7109C132.468 41.7181 132.613 40.7848 132.904 39.9111C133.209 39.0241 133.653 38.2489 134.235 37.5869C134.818 36.9251 135.533 36.4087 136.38 36.0381C137.24 35.6542 138.227 35.4619 139.339 35.4619ZM170.111 35.4619C171.978 35.4619 173.435 35.9592 174.48 36.9521C175.54 37.9319 176.175 39.2557 176.387 40.9238H173.328C173.262 40.4738 173.15 40.0766 172.991 39.7324C172.832 39.375 172.62 39.0772 172.355 38.8389C172.104 38.5873 171.793 38.4014 171.422 38.2822C171.051 38.1499 170.614 38.084 170.111 38.084C169.211 38.084 168.469 38.3086 167.887 38.7588C167.317 39.1957 166.901 39.7724 166.636 40.4873C166.371 41.1888 166.238 41.93 166.238 42.7109C166.238 43.5053 166.371 44.2606 166.636 44.9756C166.901 45.6771 167.318 46.253 167.887 46.7031C168.469 47.1533 169.211 47.3779 170.111 47.3779C170.667 47.3779 171.144 47.2985 171.541 47.1396C171.938 46.9808 172.269 46.7561 172.534 46.4648C172.812 46.1736 173.024 45.8226 173.17 45.4121C173.316 45.0017 173.408 44.5378 173.447 44.0215H176.467C176.374 45.2131 176.069 46.2598 175.553 47.1602C175.05 48.0603 174.341 48.7616 173.428 49.2646C172.527 49.7545 171.422 50 170.111 50C168.642 50 167.39 49.6751 166.357 49.0264C165.338 48.3645 164.564 47.4843 164.034 46.3857C163.505 45.2868 163.239 44.0614 163.239 42.7109C163.239 41.7181 163.386 40.7849 163.677 39.9111C163.981 39.0241 164.424 38.2489 165.007 37.5869C165.589 36.9249 166.305 36.4088 167.152 36.0381C168.013 35.6542 168.999 35.4619 170.111 35.4619ZM184.444 35.4619C185.543 35.462 186.516 35.6542 187.363 36.0381C188.224 36.4088 188.946 36.9249 189.528 37.5869C190.111 38.2489 190.548 39.0241 190.839 39.9111C191.143 40.7848 191.296 41.7181 191.296 42.7109C191.296 44.0614 191.031 45.2868 190.501 46.3857C189.971 47.4844 189.197 48.3645 188.178 49.0264C187.158 49.6751 185.914 49.9999 184.444 50C182.975 50 181.723 49.6751 180.69 49.0264C179.671 48.3644 178.896 47.4846 178.366 46.3857C177.837 45.2868 177.572 44.0614 177.572 42.7109C177.572 41.7181 177.718 40.7848 178.009 39.9111C178.313 39.0241 178.757 38.2489 179.34 37.5869C179.922 36.9251 180.637 36.4088 181.484 36.0381C182.345 35.6541 183.332 35.4619 184.444 35.4619ZM212.036 35.4619C213.069 35.4619 213.989 35.6677 214.797 36.0781C215.604 36.4885 216.24 37.0509 216.703 37.7656C217.18 38.4805 217.418 39.2883 217.418 40.1885H214.399C214.346 39.5267 214.114 39.0103 213.704 38.6396C213.307 38.2691 212.718 38.084 211.937 38.084C211.169 38.084 210.579 38.223 210.169 38.501C209.759 38.779 209.554 39.1301 209.554 39.5537C209.554 39.9508 209.699 40.2623 209.99 40.4873C210.282 40.7124 210.666 40.8973 211.143 41.043C211.632 41.1886 212.162 41.3276 212.731 41.46C213.314 41.5791 213.89 41.7317 214.459 41.917C215.028 42.1024 215.552 42.3541 216.028 42.6719C216.518 42.9895 216.908 43.4131 217.199 43.9424C217.49 44.4587 217.637 45.1211 217.637 45.9287C217.637 47.2129 217.153 48.2128 216.187 48.9277C215.22 49.6425 213.863 50 212.115 50C211.043 50 210.083 49.7942 209.235 49.3838C208.388 48.9734 207.713 48.4111 207.21 47.6963C206.707 46.9813 206.435 46.1665 206.396 45.2529H209.435C209.488 45.6899 209.64 46.068 209.892 46.3857C210.143 46.7033 210.467 46.9481 210.864 47.1201C211.275 47.2922 211.731 47.3779 212.234 47.3779C212.909 47.3779 213.479 47.266 213.942 47.041C214.406 46.8027 214.638 46.4317 214.638 45.9287C214.638 45.5713 214.492 45.2861 214.201 45.0742C213.91 44.8624 213.519 44.691 213.029 44.5586C212.553 44.4262 212.029 44.2935 211.46 44.1611C210.891 44.0288 210.315 43.8699 209.732 43.6846C209.163 43.486 208.633 43.2206 208.144 42.8896C207.667 42.5587 207.282 42.1282 206.991 41.5986C206.7 41.0559 206.555 40.3742 206.555 39.5537C206.555 38.7593 206.787 38.0573 207.25 37.4482C207.727 36.826 208.375 36.3423 209.196 35.998C210.03 35.6407 210.977 35.4619 212.036 35.4619ZM225.754 35.4619C227.621 35.4619 229.077 35.9592 230.123 36.9521C231.182 37.9319 231.818 39.2556 232.03 40.9238H228.972C228.905 40.4737 228.793 40.0766 228.634 39.7324C228.475 39.3749 228.263 39.0772 227.998 38.8389C227.747 38.5874 227.436 38.4014 227.065 38.2822C226.695 38.1498 226.257 38.084 225.754 38.084C224.854 38.0841 224.113 38.3088 223.53 38.7588C222.961 39.1957 222.544 39.7723 222.279 40.4873C222.015 41.1889 221.882 41.93 221.882 42.7109C221.882 43.5053 222.014 44.2606 222.279 44.9756C222.544 45.6771 222.961 46.2531 223.53 46.7031C224.113 47.1531 224.854 47.3779 225.754 47.3779C226.31 47.3779 226.787 47.2985 227.185 47.1396C227.582 46.9808 227.913 46.756 228.178 46.4648C228.456 46.1736 228.667 45.8224 228.812 45.4121C228.958 45.0017 229.051 44.5378 229.091 44.0215H232.109C232.017 45.2131 231.713 46.2598 231.196 47.1602C230.693 48.0603 229.985 48.7616 229.071 49.2646C228.171 49.7545 227.065 50 225.754 50C224.284 49.9999 223.034 49.6751 222.001 49.0264C220.982 48.3644 220.206 47.4846 219.677 46.3857C219.147 45.2868 218.883 44.0614 218.883 42.7109C218.883 41.7181 219.028 40.7848 219.319 39.9111C219.624 39.0241 220.068 38.2489 220.65 37.5869C221.233 36.9251 221.948 36.4088 222.795 36.0381C223.655 35.6542 224.642 35.462 225.754 35.4619ZM270.459 35.4619C272.326 35.4619 273.782 35.9592 274.828 36.9521C275.887 37.9319 276.523 39.2557 276.734 40.9238H273.676C273.61 40.4738 273.498 40.0766 273.339 39.7324C273.18 39.3751 272.968 39.0771 272.703 38.8389C272.452 38.5873 272.14 38.4014 271.77 38.2822C271.399 38.1499 270.962 38.084 270.459 38.084C269.559 38.084 268.817 38.3087 268.234 38.7588C267.665 39.1957 267.248 39.7723 266.983 40.4873C266.719 41.1888 266.586 41.93 266.586 42.7109C266.586 43.5053 266.719 44.2606 266.983 44.9756C267.248 45.6771 267.665 46.253 268.234 46.7031C268.817 47.1533 269.559 47.3779 270.459 47.3779C271.015 47.3779 271.492 47.2985 271.889 47.1396C272.286 46.9808 272.617 46.7561 272.882 46.4648C273.16 46.1736 273.372 45.8226 273.518 45.4121C273.663 45.0017 273.755 44.5378 273.795 44.0215H276.814C276.722 45.2131 276.417 46.2598 275.9 47.1602C275.397 48.0603 274.689 48.7616 273.775 49.2646C272.875 49.7545 271.77 50 270.459 50C268.989 50 267.738 49.6751 266.705 49.0264C265.686 48.3645 264.911 47.4844 264.382 46.3857C263.852 45.2868 263.587 44.0614 263.587 42.7109C263.587 41.7181 263.733 40.7849 264.024 39.9111C264.329 39.0241 264.772 38.2489 265.354 37.5869C265.937 36.9249 266.653 36.4088 267.5 36.0381C268.361 35.6542 269.347 35.4619 270.459 35.4619ZM-60.3965 46.0439V35.7803H-57.6162V49.6816H-61.8662L-66.5732 39.417V49.6816H-69.3535V35.7803H-65.1035L-60.3965 46.0439ZM-25.668 49.6816H-28.5479V35.7803H-25.668V49.6816ZM-13.9297 38.2822H-20.7217V41.4404H-14.7246V43.9424H-20.7217V47.1797H-13.8506V49.6816H-23.6016V35.7803H-13.9297V38.2822ZM-3.02734 46.0439V35.7803H-0.24707V49.6816H-4.49707L-9.2041 39.417V49.6816H-11.9844V35.7803H-7.73438L-3.02734 46.0439ZM25.8291 38.2822H19.0371V41.4404H25.0342V43.9424H19.0371V47.1797H25.9082V49.6816H16.1572V35.7803H25.8291V38.2822ZM70.7227 46.042V35.7803H73.5039V49.6816H69.2529L64.5469 39.4189V49.6816H61.7666V35.7803H66.0166L70.7227 46.042ZM105.452 49.6816H102.572V35.7803H105.452V49.6816ZM117.189 38.2822H110.397V41.4404H116.396V43.9424H110.397V47.1797H117.27V49.6816H107.518V35.7803H117.189V38.2822ZM128.092 46.042V35.7803H130.872V49.6816H126.622L121.916 39.4189V49.6816H119.136V35.7803H123.386L128.092 46.042ZM156.948 38.2822H150.156V41.4404H156.154V43.9424H150.156V47.1797H157.028V49.6816H147.276V35.7803H156.948V38.2822ZM201.843 46.0439V35.7803H204.623V49.6816H200.373L195.666 39.417V49.6816H192.886V35.7803H197.136L201.843 46.0439ZM236.571 49.6816H233.692V35.7803H236.571V49.6816ZM248.31 38.2822H241.518V41.4404H247.515V43.9424H241.518V47.1797H248.389V49.6816H238.638V35.7803H248.31V38.2822ZM259.212 46.0439V35.7803H261.992V49.6816H257.742L253.035 39.417V49.6816H250.255V35.7803H254.505L259.212 46.0439ZM288.068 38.2822H281.276V41.4404H287.273V43.9424H281.276V47.1797H288.147V49.6816H278.396V35.7803H288.068V38.2822ZM-77.7959 38.084C-78.6959 38.0841 -79.4371 38.3088 -80.0195 38.7588C-80.5889 39.1957 -81.0057 39.7723 -81.2705 40.4873C-81.5352 41.1889 -81.6679 41.93 -81.668 42.7109C-81.668 43.5053 -81.5353 44.2606 -81.2705 44.9756C-81.0057 45.6771 -80.5887 46.2531 -80.0195 46.7031C-79.4371 47.1531 -78.6959 47.3779 -77.7959 47.3779C-76.8956 47.3779 -76.1601 47.1533 -75.5908 46.7031C-75.0216 46.253 -74.6046 45.6771 -74.3398 44.9756C-74.075 44.2606 -73.9424 43.5053 -73.9424 42.7109C-73.9424 41.93 -74.0752 41.1888 -74.3398 40.4873C-74.6046 39.7723 -75.0215 39.1957 -75.5908 38.7588C-76.1601 38.3086 -76.8956 38.084 -77.7959 38.084ZM53.3242 38.084C52.4239 38.084 51.6822 38.3086 51.0996 38.7588C50.5303 39.1957 50.1134 39.7724 49.8486 40.4873C49.584 41.1888 49.4512 41.93 49.4512 42.7109C49.4512 43.5053 49.5838 44.2606 49.8486 44.9756C50.1134 45.6771 50.5304 46.253 51.0996 46.7031C51.6822 47.1533 52.4239 47.3779 53.3242 47.3779C54.2244 47.3779 54.959 47.1531 55.5283 46.7031C56.0976 46.253 56.5155 45.6772 56.7803 44.9756C57.0451 44.2606 57.1768 43.5053 57.1768 42.7109C57.1767 41.9301 57.0449 41.1888 56.7803 40.4873C56.5155 39.7723 56.0976 39.1957 55.5283 38.7588C54.959 38.3088 54.2244 38.084 53.3242 38.084ZM184.444 38.084C183.544 38.084 182.802 38.3087 182.22 38.7588C181.65 39.1957 181.234 39.7723 180.969 40.4873C180.704 41.1889 180.571 41.93 180.571 42.7109C180.571 43.5053 180.704 44.2606 180.969 44.9756C181.234 45.6771 181.651 46.2531 182.22 46.7031C182.802 47.1532 183.544 47.3779 184.444 47.3779C185.344 47.3779 186.079 47.1532 186.648 46.7031C187.218 46.253 187.635 45.6771 187.899 44.9756C188.164 44.2606 188.297 43.5053 188.297 42.7109C188.297 41.93 188.164 41.1888 187.899 40.4873C187.635 39.7723 187.218 39.1957 186.648 38.7588C186.079 38.3087 185.344 38.0841 184.444 38.084ZM-49.2695 17.623C-48.2369 17.6231 -47.3164 17.8279 -46.5088 18.2383C-45.7012 18.6487 -45.0659 19.2119 -44.6025 19.9268C-44.126 20.6417 -43.8877 21.4493 -43.8877 22.3496H-46.9062C-46.9592 21.6877 -47.1912 21.1715 -47.6016 20.8008C-47.9988 20.4301 -48.588 20.2441 -49.3691 20.2441C-50.137 20.2442 -50.7263 20.3831 -51.1367 20.6611C-51.5471 20.9391 -51.7519 21.2903 -51.752 21.7139C-51.752 22.111 -51.6067 22.4224 -51.3154 22.6475C-51.0241 22.8725 -50.6397 23.0575 -50.1631 23.2031C-49.6733 23.3487 -49.1435 23.4877 -48.5742 23.6201C-47.9917 23.7393 -47.4159 23.8918 -46.8467 24.0771C-46.2774 24.2625 -45.754 24.5143 -45.2773 24.832C-44.7876 25.1498 -44.3977 25.574 -44.1064 26.1035C-43.8153 26.6198 -43.669 27.2814 -43.6689 28.0889C-43.6689 29.3731 -44.1526 30.3729 -45.1191 31.0879C-46.0857 31.8028 -47.4428 32.1602 -49.1904 32.1602C-50.2628 32.1601 -51.223 31.9553 -52.0703 31.5449C-52.9176 31.1345 -53.5926 30.5713 -54.0957 29.8564C-54.5987 29.1416 -54.8704 28.3275 -54.9102 27.4141H-51.8711C-51.8181 27.8508 -51.6665 28.2282 -51.415 28.5459C-51.1635 28.8636 -50.8386 29.1082 -50.4414 29.2803C-50.031 29.4524 -49.5743 29.539 -49.0713 29.5391C-48.3961 29.5391 -47.8267 29.4262 -47.3633 29.2012C-46.8999 28.9629 -46.668 28.592 -46.668 28.0889C-46.668 27.7317 -46.8135 27.4471 -47.1045 27.2354C-47.3957 27.0236 -47.7866 26.8511 -48.2764 26.7188C-48.753 26.5863 -49.2764 26.4537 -49.8457 26.3213C-50.4149 26.1889 -50.9908 26.0301 -51.5732 25.8447C-52.1425 25.6462 -52.6723 25.3817 -53.1621 25.0508C-53.6387 24.7198 -54.0232 24.2894 -54.3145 23.7598C-54.6057 23.2169 -54.751 22.5347 -54.751 21.7139C-54.7509 20.9195 -54.519 20.2174 -54.0557 19.6084C-53.5791 18.9863 -52.9301 18.5033 -52.1094 18.1592C-51.2753 17.8018 -50.3286 17.623 -49.2695 17.623ZM34.502 17.623C35.6008 17.6231 36.5736 17.8153 37.4209 18.1992C38.2815 18.5699 39.0034 19.086 39.5859 19.748C40.1684 20.41 40.6052 21.1844 40.8965 22.0713C41.201 22.9451 41.3535 23.8791 41.3535 24.8721C41.3535 26.2224 41.0882 27.4471 40.5586 28.5459C40.029 29.6447 39.2548 30.5255 38.2354 31.1875C37.216 31.8362 35.9714 32.1601 34.502 32.1602C33.0323 32.1602 31.7808 31.8362 30.748 31.1875C29.7286 30.5255 28.9544 29.6448 28.4248 28.5459C27.8952 27.4471 27.6299 26.2224 27.6299 24.8721C27.6299 23.8791 27.7761 22.9451 28.0674 22.0713C28.3719 21.1844 28.815 20.4099 29.3975 19.748C29.98 19.086 30.6956 18.5699 31.543 18.1992C32.4035 17.8153 33.3899 17.623 34.502 17.623ZM64.9023 17.623C65.935 17.623 66.8555 17.8279 67.6631 18.2383C68.4707 18.6487 69.1059 19.2118 69.5693 19.9268C70.046 20.6417 70.2842 21.4493 70.2842 22.3496H67.2656C67.2127 21.6876 66.9808 21.1715 66.5703 20.8008C66.1732 20.4302 65.5846 20.2442 64.8037 20.2441C64.0361 20.2441 63.4466 20.3833 63.0361 20.6611C62.6257 20.9391 62.42 21.2903 62.4199 21.7139C62.4199 22.1111 62.5661 22.4224 62.8574 22.6475C63.1486 22.8724 63.5324 23.0575 64.0088 23.2031C64.4986 23.3488 65.0284 23.4877 65.5977 23.6201C66.1801 23.7393 66.756 23.8918 67.3252 24.0771C67.8945 24.2625 68.4179 24.5143 68.8945 24.832C69.3844 25.1498 69.7751 25.5739 70.0664 26.1035C70.3575 26.6198 70.5029 27.2816 70.5029 28.0889C70.5029 29.373 70.02 30.3729 69.0537 31.0879C68.0873 31.8028 66.7299 32.1601 64.9824 32.1602C63.9101 32.1602 62.9498 31.9553 62.1025 31.5449C61.2552 31.1345 60.5793 30.5714 60.0762 29.8564C59.5732 29.1416 59.3024 28.3274 59.2627 27.4141H62.3008C62.3538 27.8509 62.5063 28.2282 62.7578 28.5459C63.0093 28.8635 63.3335 29.1082 63.7305 29.2803C64.1409 29.4524 64.5984 29.5391 65.1016 29.5391C65.7766 29.539 66.3463 29.4262 66.8096 29.2012C67.2727 28.9628 67.5039 28.5918 67.5039 28.0889C67.5038 27.7316 67.3585 27.4471 67.0674 27.2354C66.7761 27.0235 66.3854 26.8512 65.8955 26.7188C65.4189 26.5864 64.8955 26.4537 64.3262 26.3213C63.757 26.1889 63.181 26.03 62.5986 25.8447C62.0294 25.6461 61.4996 25.3817 61.0098 25.0508C60.5332 24.7198 60.1497 24.2892 59.8584 23.7598C59.5671 23.2169 59.4209 22.5347 59.4209 21.7139C59.4209 20.9195 59.6528 20.2174 60.1162 19.6084C60.5928 18.9863 61.2418 18.5034 62.0625 18.1592C62.8966 17.8017 63.8432 17.6231 64.9023 17.623ZM148.674 17.623C149.773 17.623 150.746 17.8153 151.594 18.1992C152.454 18.5699 153.175 19.0862 153.758 19.748C154.34 20.41 154.777 21.1843 155.068 22.0713C155.373 22.9451 155.525 23.8791 155.525 24.8721C155.525 26.2224 155.261 27.4471 154.731 28.5459C154.202 29.6448 153.427 30.5255 152.407 31.1875C151.388 31.8361 150.143 32.1602 148.674 32.1602C147.204 32.1601 145.953 31.8363 144.92 31.1875C143.901 30.5255 143.126 29.6447 142.597 28.5459C142.067 27.4471 141.803 26.2224 141.803 24.8721C141.803 23.8791 141.948 22.9451 142.239 22.0713C142.544 21.1843 142.988 20.41 143.57 19.748C144.153 19.0861 144.868 18.5699 145.715 18.1992C146.575 17.8153 147.562 17.6231 148.674 17.623ZM178.183 17.623C179.215 17.623 180.136 17.8279 180.943 18.2383C181.751 18.6487 182.386 19.2118 182.85 19.9268C183.326 20.6417 183.564 21.4493 183.564 22.3496H180.546C180.493 21.6876 180.261 21.1715 179.851 20.8008C179.453 20.4301 178.864 20.2441 178.083 20.2441C177.316 20.2442 176.727 20.3834 176.316 20.6611C175.906 20.9391 175.7 21.2903 175.7 21.7139C175.7 22.1111 175.846 22.4224 176.138 22.6475C176.429 22.8724 176.813 23.0575 177.289 23.2031C177.779 23.3488 178.309 23.4877 178.878 23.6201C179.46 23.7393 180.036 23.8918 180.605 24.0771C181.175 24.2625 181.698 24.5143 182.175 24.832C182.665 25.1498 183.055 25.574 183.347 26.1035C183.638 26.6198 183.783 27.2816 183.783 28.0889C183.783 29.373 183.3 30.3729 182.334 31.0879C181.368 31.8028 180.01 32.1601 178.263 32.1602C177.19 32.1602 176.23 31.9553 175.383 31.5449C174.535 31.1345 173.86 30.5714 173.356 29.8564C172.853 29.1416 172.583 28.3274 172.543 27.4141H175.581C175.634 27.8509 175.787 28.2282 176.038 28.5459C176.29 28.8635 176.614 29.1082 177.011 29.2803C177.421 29.4524 177.879 29.5391 178.382 29.5391C179.057 29.539 179.627 29.4262 180.09 29.2012C180.553 28.9628 180.784 28.5918 180.784 28.0889C180.784 27.7316 180.639 27.4471 180.348 27.2354C180.056 27.0235 179.666 26.8512 179.176 26.7188C178.699 26.5864 178.176 26.4537 177.606 26.3213C177.037 26.1889 176.461 26.03 175.879 25.8447C175.31 25.6461 174.78 25.3817 174.29 25.0508C173.813 24.7198 173.43 24.2892 173.139 23.7598C172.847 23.2169 172.701 22.5347 172.701 21.7139C172.701 20.9195 172.933 20.2174 173.396 19.6084C173.873 18.9863 174.522 18.5034 175.343 18.1592C176.177 17.8017 177.123 17.6231 178.183 17.623ZM261.954 17.623C263.053 17.623 264.027 17.8153 264.874 18.1992C265.734 18.5699 266.456 19.0862 267.038 19.748C267.621 20.41 268.057 21.1843 268.349 22.0713C268.653 22.9451 268.806 23.8791 268.806 24.8721C268.806 26.2224 268.541 27.4471 268.012 28.5459C267.482 29.6448 266.707 30.5255 265.688 31.1875C264.668 31.8361 263.424 32.1602 261.954 32.1602C260.484 32.1601 259.233 31.8363 258.2 31.1875C257.181 30.5255 256.407 29.6448 255.877 28.5459C255.347 27.4471 255.083 26.2224 255.083 24.8721C255.083 23.8791 255.228 22.9451 255.52 22.0713C255.824 21.1843 256.268 20.41 256.851 19.748C257.433 19.0861 258.148 18.5699 258.995 18.1992C259.856 17.8153 260.842 17.6231 261.954 17.623ZM-31.5088 20.4434H-35.8379V31.8428H-38.7178V20.4434H-43.0479V17.9404H-31.5088V20.4434ZM-25.3096 17.9404C-24.1049 17.9404 -23.0526 18.0867 -22.1523 18.3779C-21.2388 18.6692 -20.5295 19.1456 -20.0264 19.8076C-19.5102 20.4696 -19.252 21.3703 -19.252 22.5088C-19.252 23.6338 -19.5103 24.5339 -20.0264 25.209C-20.4537 25.7712 -21.0306 26.1974 -21.7539 26.4922L-19.1533 31.8428H-22.4297L-24.4629 27.0498C-24.7362 27.0668 -25.0184 27.0762 -25.3096 27.0762H-27.2363V31.8428H-30.1162V17.9404H-25.3096ZM-7.70117 20.4434H-14.4941V23.6006H-8.49609V26.1035H-14.4941V29.3398H-7.62207V31.8428H-17.373V17.9404H-7.70117V20.4434ZM5.96387 31.8428H3.02441L2.18555 28.9229H-2.71094L-3.5498 31.8428H-6.48828L-2.29785 17.9404H1.77344L5.96387 31.8428ZM14.7314 28.9561L17.4229 17.9404H22.0703V31.8428H19.2891V22.0908L16.7676 31.8428H12.6963L10.1738 22.0869V31.8428H7.39355V17.9404H12.041L14.7314 28.9561ZM52.417 20.4434H45.8232V23.998H51.6221V26.5H45.8232V31.8428H42.9434V17.9404H52.417V20.4434ZM82.6631 20.4434H78.334V31.8428H75.4541V20.4434H71.125V17.9404H82.6631V20.4434ZM88.8623 17.9404C90.0671 17.9404 91.1202 18.0866 92.0205 18.3779C92.934 18.6692 93.6424 19.1457 94.1455 19.8076C94.6618 20.4696 94.9199 21.3702 94.9199 22.5088C94.9199 23.6338 94.6617 24.5339 94.1455 25.209C93.7183 25.7711 93.142 26.1974 92.4189 26.4922L95.0195 31.8428H91.7422L89.709 27.0498C89.4357 27.0668 89.1533 27.0762 88.8623 27.0762H86.9365V31.8428H84.0566V17.9404H88.8623ZM106.471 20.4434H99.6787V23.6006H105.676V26.1035H99.6787V29.3398H106.55V31.8428H96.7988V17.9404H106.471V20.4434ZM120.136 31.8428H117.196L116.358 28.9229H111.461L110.623 31.8428H107.684L111.874 17.9404H115.945L120.136 31.8428ZM128.903 28.957L131.595 17.9404H136.242V31.8428H133.462V22.0869L130.939 31.8428H126.868L124.346 22.0869V31.8428H121.565V17.9404H126.213L128.903 28.957ZM166.589 20.4434H159.995V23.998H165.795V26.5H159.995V31.8428H157.116V17.9404H166.589V20.4434ZM195.943 20.4434H191.614V31.8428H188.734V20.4434H184.405V17.9404H195.943V20.4434ZM202.143 17.9404C203.347 17.9404 204.4 18.0866 205.301 18.3779C206.214 18.6692 206.923 19.1457 207.426 19.8076C207.942 20.4696 208.2 21.3702 208.2 22.5088C208.2 23.6338 207.942 24.5339 207.426 25.209C206.999 25.7711 206.422 26.1974 205.699 26.4922L208.3 31.8428H205.022L202.989 27.0498C202.716 27.0668 202.434 27.0762 202.143 27.0762H200.217V31.8428H197.337V17.9404H202.143ZM219.751 20.4434H212.959V23.6006H218.956V26.1035H212.959V29.3398H219.83V31.8428H210.079V17.9404H219.751V20.4434ZM233.416 31.8428H230.477L229.639 28.9229H224.741L223.903 31.8428H220.964L225.154 17.9404H229.226L233.416 31.8428ZM242.184 28.957L244.875 17.9404H249.522V31.8428H246.742V22.0869L244.22 31.8428H240.148L237.626 22.0869V31.8428H234.846V17.9404H239.493L242.184 28.957ZM279.869 20.4434H273.275V23.998H279.075V26.5H273.275V31.8428H270.396V17.9404H279.869V20.4434ZM34.502 20.2441C33.6016 20.2441 32.8599 20.4698 32.2773 20.9199C31.7081 21.3568 31.2911 21.9326 31.0264 22.6475C30.7616 23.3492 30.6289 24.0909 30.6289 24.8721C30.6289 25.6664 30.7616 26.4209 31.0264 27.1357C31.2911 27.8374 31.7081 28.4131 32.2773 28.8633C32.8599 29.3134 33.6016 29.5391 34.502 29.5391C35.4021 29.539 36.1368 29.3134 36.7061 28.8633C37.2753 28.4131 37.6922 27.8374 37.957 27.1357C38.2218 26.4209 38.3545 25.6664 38.3545 24.8721C38.3545 24.0909 38.2218 23.3492 37.957 22.6475C37.6922 21.9326 37.2753 21.3568 36.7061 20.9199C36.1368 20.4698 35.4021 20.2442 34.502 20.2441ZM148.674 20.2441C147.774 20.2442 147.032 20.4698 146.449 20.9199C145.88 21.3568 145.463 21.9327 145.198 22.6475C144.933 23.3492 144.801 24.0909 144.801 24.8721C144.801 25.6663 144.934 26.4209 145.198 27.1357C145.463 27.8373 145.88 28.4132 146.449 28.8633C147.032 29.3134 147.774 29.5391 148.674 29.5391C149.574 29.5391 150.309 29.3134 150.878 28.8633C151.447 28.4131 151.865 27.8375 152.13 27.1357C152.395 26.4209 152.526 25.6663 152.526 24.8721C152.526 24.091 152.395 23.3491 152.13 22.6475C151.865 21.9325 151.447 21.3568 150.878 20.9199C150.309 20.4698 149.574 20.2441 148.674 20.2441ZM261.954 20.2441C261.054 20.2441 260.312 20.4698 259.729 20.9199C259.16 21.3568 258.743 21.9327 258.479 22.6475C258.214 23.3492 258.081 24.0909 258.081 24.8721C258.081 25.6663 258.214 26.4209 258.479 27.1357C258.743 27.8373 259.16 28.4132 259.729 28.8633C260.312 29.3134 261.054 29.5391 261.954 29.5391C262.854 29.5391 263.589 29.3134 264.158 28.8633C264.728 28.4131 265.145 27.8375 265.41 27.1357C265.675 26.4209 265.807 25.6663 265.807 24.8721C265.807 24.091 265.675 23.3491 265.41 22.6475C265.145 21.9325 264.728 21.3568 264.158 20.9199C263.589 20.4698 262.854 20.2441 261.954 20.2441ZM-1.99316 26.4209H1.46777L-0.262695 20.3945L-1.99316 26.4209ZM112.18 26.4209H115.64L113.909 20.3945L112.18 26.4209ZM225.46 26.4209H228.92L227.189 20.3945L225.46 26.4209ZM-27.2363 24.5742H-25.3096C-24.6741 24.5742 -24.1308 24.5147 -23.6807 24.3955C-23.2176 24.2631 -22.8672 24.0508 -22.6289 23.7598C-22.3774 23.4553 -22.251 23.0382 -22.251 22.5088C-22.251 21.9792 -22.3773 21.5686 -22.6289 21.2773C-22.8672 20.9729 -23.2175 20.7608 -23.6807 20.6416C-24.1308 20.5092 -24.6741 20.4434 -25.3096 20.4434H-27.2363V24.5742ZM86.9365 24.5742H88.8623C89.4978 24.5742 90.0411 24.5147 90.4912 24.3955C90.9546 24.2631 91.3056 24.051 91.5439 23.7598C91.7954 23.4553 91.9208 23.0382 91.9209 22.5088C91.9209 21.9793 91.7954 21.5686 91.5439 21.2773C91.3056 20.9728 90.9546 20.7608 90.4912 20.6416C90.041 20.5092 89.4978 20.4434 88.8623 20.4434H86.9365V24.5742ZM200.217 24.5742H202.143C202.778 24.5742 203.321 24.5147 203.771 24.3955C204.235 24.2631 204.586 24.051 204.824 23.7598C205.076 23.4553 205.201 23.0382 205.201 22.5088C205.201 21.9793 205.076 21.5686 204.824 21.2773C204.586 20.9728 204.235 20.7608 203.771 20.6416C203.321 20.5092 202.778 20.4434 202.143 20.4434H200.217V24.5742ZM12.0508 0.675781C13.1497 0.675781 14.1234 0.867031 14.9707 1.25098C15.8313 1.6217 16.5532 2.13878 17.1357 2.80078C17.7181 3.46269 18.1551 4.23712 18.4463 5.12402C18.7508 5.99771 18.9033 6.93102 18.9033 7.92383C18.9033 9.27431 18.638 10.4997 18.1084 11.5986C17.5788 12.6975 16.8046 13.5783 15.7852 14.2402C14.7657 14.889 13.5204 15.2129 12.0508 15.2129C10.5815 15.2128 9.33041 14.8888 8.29785 14.2402C7.27838 13.5782 6.50323 12.6975 5.97363 11.5986C5.44403 10.4997 5.17969 9.27431 5.17969 7.92383C5.17974 6.93103 5.32499 5.9977 5.61621 5.12402C5.92071 4.237 6.36476 3.46275 6.94727 2.80078C7.52981 2.13879 8.24446 1.6217 9.0918 1.25098C9.9523 0.867061 10.9388 0.675826 12.0508 0.675781ZM41.9121 0.675781C42.9448 0.675781 43.8653 0.880637 44.6729 1.29102C45.4805 1.70146 46.1167 2.26453 46.5801 2.97949C47.0565 3.69435 47.2949 4.50221 47.2949 5.40234H44.2754C44.2224 4.74034 43.9915 4.22326 43.5811 3.85254C43.1839 3.48191 42.5945 3.29692 41.8135 3.29688C41.0457 3.29688 40.4563 3.43592 40.0459 3.71387C39.6355 3.99191 39.4297 4.34292 39.4297 4.7666C39.4297 5.16379 39.5759 5.47512 39.8672 5.7002C40.1584 5.92514 40.5422 6.11028 41.0186 6.25586C41.5084 6.40148 42.0382 6.54047 42.6074 6.67285C43.1898 6.79198 43.7658 6.94459 44.335 7.12988C44.9043 7.31524 45.4277 7.56701 45.9043 7.88477C46.3941 8.20247 46.7849 8.6258 47.0762 9.15527C47.3674 9.67163 47.5127 10.334 47.5127 11.1416C47.5127 12.4258 47.0299 13.4257 46.0635 14.1406C45.097 14.8556 43.7398 15.2129 41.9922 15.2129C40.9198 15.2129 39.9596 15.008 39.1123 14.5977C38.265 14.1872 37.59 13.6241 37.0869 12.9092C36.5839 12.1943 36.3122 11.3802 36.2725 10.4668H39.3105C39.3635 10.9036 39.5161 11.281 39.7676 11.5986C40.0191 11.9163 40.3441 12.1609 40.7412 12.333C41.1516 12.505 41.6083 12.5918 42.1113 12.5918C42.7865 12.5918 43.356 12.479 43.8193 12.2539C44.2826 12.0156 44.5146 11.6447 44.5146 11.1416C44.5146 10.7842 44.3683 10.4999 44.0771 10.2881C43.7859 10.0762 43.3952 9.90388 42.9053 9.77148C42.4288 9.63912 41.906 9.50638 41.3369 9.37402C40.7676 9.24162 40.191 9.08282 39.6084 8.89746C39.0392 8.69887 38.5093 8.43446 38.0195 8.10352C37.543 7.77258 37.1594 7.34194 36.8682 6.8125C36.5769 6.26967 36.4307 5.58747 36.4307 4.7666C36.4307 3.9722 36.6626 3.27017 37.126 2.66113C37.6026 2.03896 38.2516 1.55614 39.0723 1.21191C39.9063 0.854478 40.8531 0.675826 41.9121 0.675781ZM101.248 0.675781C102.347 0.675781 103.321 0.867016 104.168 1.25098C105.029 1.62169 105.75 2.13881 106.332 2.80078C106.915 3.46278 107.352 4.23695 107.644 5.12402C107.948 5.99769 108.1 6.93105 108.1 7.92383C108.1 9.27431 107.835 10.4997 107.306 11.5986C106.776 12.6975 106.001 13.5783 104.981 14.2402C103.962 14.8888 102.717 15.2129 101.248 15.2129C99.7787 15.2129 98.5277 14.8888 97.4951 14.2402C96.4757 13.5783 95.7005 12.6975 95.1709 11.5986C94.6413 10.4997 94.377 9.27431 94.377 7.92383C94.377 6.93101 94.5222 5.99772 94.8135 5.12402C95.118 4.23696 95.562 3.46278 96.1445 2.80078C96.7271 2.13878 97.4417 1.6217 98.2891 1.25098C99.1496 0.867073 100.136 0.675802 101.248 0.675781ZM131.109 0.675781C132.142 0.675781 133.062 0.88058 133.87 1.29102C134.678 1.70146 135.313 2.26453 135.776 2.97949C136.253 3.69443 136.491 4.50206 136.491 5.40234H133.473C133.42 4.74034 133.188 4.22326 132.777 3.85254C132.38 3.48219 131.791 3.29695 131.011 3.29688C130.243 3.29688 129.654 3.43599 129.243 3.71387C128.833 3.99191 128.627 4.34292 128.627 4.7666C128.627 5.16379 128.773 5.47512 129.064 5.7002C129.356 5.92512 129.739 6.11029 130.216 6.25586C130.706 6.4015 131.235 6.54045 131.805 6.67285C132.387 6.79199 132.963 6.94456 133.532 7.12988C134.102 7.31524 134.625 7.56701 135.102 7.88477C135.591 8.20248 135.982 8.62581 136.273 9.15527C136.565 9.67163 136.71 10.334 136.71 11.1416C136.71 12.4258 136.227 13.4257 135.261 14.1406C134.294 14.8555 132.937 15.2128 131.189 15.2129C130.117 15.2129 129.157 15.008 128.31 14.5977C127.462 14.1872 126.786 13.6241 126.283 12.9092C125.78 12.1944 125.51 11.3801 125.47 10.4668H128.508C128.561 10.9036 128.713 11.281 128.965 11.5986C129.216 11.9162 129.541 12.1609 129.938 12.333C130.348 12.5051 130.805 12.5918 131.309 12.5918C131.984 12.5917 132.553 12.4789 133.017 12.2539C133.48 12.0156 133.711 11.6446 133.711 11.1416C133.711 10.7843 133.566 10.4999 133.274 10.2881C132.983 10.0762 132.592 9.90388 132.103 9.77148C131.626 9.63908 131.103 9.50642 130.533 9.37402C129.964 9.24164 129.388 9.08278 128.806 8.89746C128.236 8.69888 127.707 8.43447 127.217 8.10352C126.74 7.7726 126.357 7.34192 126.065 6.8125C125.774 6.26967 125.628 5.58747 125.628 4.7666C125.628 3.9722 125.86 3.27017 126.323 2.66113C126.8 2.03896 127.449 1.55612 128.27 1.21191C129.104 0.854454 130.05 0.675802 131.109 0.675781ZM190.445 0.675781C191.544 0.675785 192.517 0.867173 193.364 1.25098C194.225 1.6217 194.947 2.13878 195.529 2.80078C196.112 3.46272 196.549 4.23705 196.84 5.12402C197.144 5.99772 197.297 6.93101 197.297 7.92383C197.297 9.27431 197.033 10.4997 196.503 11.5986C195.973 12.6975 195.198 13.5782 194.179 14.2402C193.159 14.8888 191.915 15.2129 190.445 15.2129C188.976 15.2129 187.724 14.889 186.691 14.2402C185.672 13.5783 184.898 12.6975 184.368 11.5986C183.839 10.4997 183.573 9.27431 183.573 7.92383C183.573 6.93101 183.72 5.99772 184.011 5.12402C184.315 4.23715 184.758 3.46268 185.341 2.80078C185.923 2.13878 186.639 1.6217 187.486 1.25098C188.347 0.867106 189.333 0.675781 190.445 0.675781ZM220.307 0.675781C221.339 0.675783 222.26 0.880577 223.067 1.29102C223.875 1.70145 224.51 2.26457 224.974 2.97949C225.45 3.69441 225.688 4.5021 225.688 5.40234H222.67C222.617 4.74034 222.385 4.22326 221.975 3.85254C221.577 3.48205 220.988 3.29688 220.207 3.29688C219.439 3.29691 218.85 3.43586 218.439 3.71387C218.029 3.99189 217.824 4.34298 217.824 4.7666C217.824 5.16374 217.97 5.47513 218.261 5.7002C218.552 5.92528 218.936 6.11022 219.413 6.25586C219.903 6.40149 220.433 6.54046 221.002 6.67285C221.584 6.792 222.16 6.94455 222.729 7.12988C223.299 7.31524 223.822 7.56701 224.299 7.88477C224.789 8.20249 225.179 8.62582 225.471 9.15527C225.762 9.67163 225.907 10.334 225.907 11.1416C225.907 12.4259 225.424 13.4257 224.457 14.1406C223.491 14.8554 222.133 15.2129 220.386 15.2129C219.314 15.2128 218.354 15.0079 217.507 14.5977C216.659 14.1872 215.984 13.6241 215.48 12.9092C214.977 12.1943 214.706 11.3802 214.666 10.4668H217.705C217.758 10.9035 217.911 11.281 218.162 11.5986C218.414 11.9162 218.738 12.1609 219.135 12.333C219.545 12.5051 220.002 12.5918 220.505 12.5918C221.18 12.5918 221.75 12.4789 222.213 12.2539C222.676 12.0156 222.908 11.6447 222.908 11.1416C222.908 10.7843 222.763 10.4999 222.472 10.2881C222.18 10.0763 221.79 9.90388 221.3 9.77148C220.823 9.63908 220.3 9.50642 219.73 9.37402C219.161 9.24164 218.585 9.08279 218.003 8.89746C217.434 8.69889 216.904 8.43445 216.414 8.10352C215.937 7.77253 215.553 7.34207 215.262 6.8125C214.97 6.26967 214.825 5.58747 214.825 4.7666C214.825 3.9722 215.057 3.27017 215.521 2.66113C215.997 2.03897 216.646 1.55611 217.467 1.21191C218.301 0.85444 219.247 0.675781 220.307 0.675781ZM-26.4678 3.49512H-33.2598V6.65332H-27.2617V9.15527H-33.2598V12.3926H-26.3877V14.8955H-36.1387V0.993164H-26.4678V3.49512ZM-19.3184 0.993164C-17.8487 0.993174 -16.6044 1.2982 -15.585 1.90723C-14.5655 2.50302 -13.7903 3.32322 -13.2607 4.36914C-12.7311 5.40186 -12.4668 6.58756 -12.4668 7.9248C-12.4669 9.27488 -12.7314 10.4728 -13.2607 11.5186C-13.7903 12.5645 -14.5655 13.3929 -15.585 14.002C-16.6044 14.5976 -17.8489 14.8955 -19.3184 14.8955H-24.5215V0.993164H-19.3184ZM-8.00781 14.8955H-10.8877V0.993164H-8.00781V14.8955ZM4.92285 3.49512H0.592773V14.8955H-2.28613V3.49512H-6.61621V0.993164H4.92285V3.49512ZM25.2988 0.993164C26.5037 0.993164 27.5567 1.13841 28.457 1.42969C29.3706 1.72097 30.0789 2.19835 30.582 2.86035C31.0982 3.52224 31.3564 4.42226 31.3564 5.56055C31.3564 6.68584 31.0983 7.5865 30.582 8.26172C30.1548 8.82382 29.5786 9.2501 28.8555 9.54492L31.4561 14.8955H28.1787L26.1455 10.1025C25.8723 10.1195 25.5898 10.1289 25.2988 10.1289H23.373V14.8955H20.4932V0.993164H25.2988ZM62.7295 3.49512H55.9375V6.65332H61.9355V9.15527H55.9375V12.3926H62.8096V14.8955H53.0576V0.993164H62.7295V3.49512ZM69.8789 0.993164C71.3484 0.993203 72.5929 1.29822 73.6123 1.90723C74.6316 2.50295 75.406 3.32342 75.9355 4.36914C76.4651 5.40186 76.7305 6.58756 76.7305 7.9248C76.7304 9.27501 76.465 10.4728 75.9355 11.5186C75.4059 12.5645 74.6318 13.3929 73.6123 14.002C72.5929 14.5976 71.3483 14.8955 69.8789 14.8955H64.6758V0.993164H69.8789ZM81.1895 14.8955H78.3096V0.993164H81.1895V14.8955ZM94.1201 3.49512H89.79V14.8955H86.9102V3.49512H82.5811V0.993164H94.1201V3.49512ZM114.496 0.993164C115.701 0.993164 116.754 1.13841 117.654 1.42969C118.568 1.72097 119.276 2.1984 119.779 2.86035C120.295 3.52223 120.554 4.42232 120.554 5.56055C120.554 6.68578 120.296 7.58651 119.779 8.26172C119.352 8.82378 118.776 9.2501 118.053 9.54492L120.652 14.8955H117.376L115.343 10.1025C115.069 10.1195 114.787 10.1289 114.496 10.1289H112.569V14.8955H109.69V0.993164H114.496ZM151.927 3.49512H145.135V6.65332H151.133V9.15527H145.135V12.3926H152.006V14.8955H142.255V0.993164H151.927V3.49512ZM159.075 0.993164C160.545 0.993164 161.79 1.29819 162.81 1.90723C163.829 2.50296 164.603 3.32343 165.133 4.36914C165.662 5.40186 165.928 6.58756 165.928 7.9248C165.928 9.27497 165.662 10.4728 165.133 11.5186C164.603 12.5645 163.829 13.3929 162.81 14.002C161.79 14.5977 160.545 14.8955 159.075 14.8955H153.872V0.993164H159.075ZM170.387 14.8955H167.507V0.993164H170.387V14.8955ZM183.316 3.49512H178.987V14.8955H176.107V3.49512H171.778V0.993164H183.316V3.49512ZM203.693 0.993164C204.898 0.993171 205.95 1.13852 206.851 1.42969C207.764 1.72097 208.472 2.19836 208.976 2.86035C209.492 3.52227 209.751 4.42211 209.751 5.56055C209.751 6.68595 209.492 7.58648 208.976 8.26172C208.548 8.82391 207.972 9.2501 207.249 9.54492L209.85 14.8955H206.573L204.54 10.1025C204.267 10.1195 203.984 10.1289 203.693 10.1289H201.767V14.8955H198.887V0.993164H203.693ZM12.0508 3.29688C11.1506 3.29694 10.4096 3.52256 9.82715 3.97266C9.25785 4.40957 8.83999 4.98525 8.5752 5.7002C8.31053 6.40167 8.17877 7.14297 8.17871 7.92383C8.17871 8.71821 8.31041 9.47353 8.5752 10.1885C8.84 10.8902 9.25783 11.4659 9.82715 11.916C10.4096 12.3661 11.1507 12.5917 12.0508 12.5918C12.9511 12.5918 13.6865 12.3662 14.2559 11.916C14.825 11.4659 15.2421 10.8901 15.5068 10.1885C15.7716 9.47352 15.9043 8.71823 15.9043 7.92383C15.9042 7.14291 15.7715 6.40172 15.5068 5.7002C15.2421 4.98539 14.825 4.40954 14.2559 3.97266C13.6865 3.52249 12.9511 3.29688 12.0508 3.29688ZM101.248 3.29688C100.348 3.2969 99.606 3.52252 99.0234 3.97266C98.4544 4.40953 98.0372 4.98545 97.7725 5.7002C97.5078 6.40169 97.376 7.14294 97.376 7.92383C97.376 8.71823 97.5077 9.47352 97.7725 10.1885C98.0372 10.89 98.4543 11.4659 99.0234 11.916C99.606 12.3661 100.348 12.5918 101.248 12.5918C102.148 12.5918 102.884 12.3662 103.453 11.916C104.022 11.4659 104.439 10.89 104.704 10.1885C104.969 9.47352 105.101 8.71823 105.101 7.92383C105.101 7.14294 104.969 6.40169 104.704 5.7002C104.439 4.98545 104.022 4.40953 103.453 3.97266C102.884 3.52249 102.148 3.29688 101.248 3.29688ZM190.445 3.29688C189.545 3.29688 188.803 3.52249 188.221 3.97266C187.652 4.40954 187.234 4.9854 186.97 5.7002C186.705 6.40171 186.572 7.14292 186.572 7.92383C186.572 8.71823 186.705 9.47352 186.97 10.1885C187.234 10.8901 187.652 11.4659 188.221 11.916C188.803 12.3662 189.545 12.5918 190.445 12.5918C191.346 12.5918 192.08 12.3661 192.649 11.916C193.219 11.4659 193.637 10.8902 193.901 10.1885C194.166 9.47353 194.298 8.71821 194.298 7.92383C194.298 7.14297 194.166 6.40167 193.901 5.7002C193.637 4.98525 193.219 4.40957 192.649 3.97266C192.08 3.5225 191.346 3.29688 190.445 3.29688ZM-21.6416 12.3926H-19.3184C-18.4182 12.3926 -17.6835 12.1876 -17.1143 11.7773C-16.5449 11.3537 -16.1271 10.8041 -15.8623 10.1289C-15.5976 9.45382 -15.4659 8.719 -15.4658 7.9248C-15.4658 7.14364 -15.5975 6.4145 -15.8623 5.73926C-16.1271 5.06413 -16.545 4.52172 -17.1143 4.11133C-17.6835 3.70096 -18.4181 3.49513 -19.3184 3.49512H-21.6416V12.3926ZM67.5547 12.3926H69.8789C70.779 12.3925 71.5138 12.1877 72.083 11.7773C72.6523 11.3537 73.0692 10.8041 73.334 10.1289C73.5987 9.4538 73.7314 8.71902 73.7314 7.9248C73.7314 7.14364 73.5988 6.4145 73.334 5.73926C73.0692 5.06425 72.6522 4.52167 72.083 4.11133C71.5137 3.70093 70.7791 3.49516 69.8789 3.49512H67.5547V12.3926ZM156.752 12.3926H159.075C159.976 12.3926 160.711 12.1878 161.28 11.7773C161.85 11.3537 162.266 10.8041 162.531 10.1289C162.796 9.4538 162.929 8.71902 162.929 7.9248C162.929 7.14364 162.796 6.4145 162.531 5.73926C162.266 5.06427 161.849 4.52167 161.28 4.11133C160.711 3.70089 159.976 3.49512 159.075 3.49512H156.752V12.3926ZM23.373 7.62598H25.2988C25.9343 7.62598 26.4776 7.56643 26.9277 7.44727C27.391 7.31488 27.7422 7.1037 27.9805 6.8125C28.232 6.50798 28.3574 6.09015 28.3574 5.56055C28.3574 5.03136 28.2318 4.62126 27.9805 4.33008C27.7422 4.02558 27.3911 3.8135 26.9277 3.69434C26.4776 3.56194 25.9343 3.49512 25.2988 3.49512H23.373V7.62598ZM112.569 7.62598H114.496C115.132 7.62598 115.675 7.56643 116.125 7.44727C116.588 7.31486 116.939 7.1037 117.178 6.8125C117.429 6.50798 117.555 6.09014 117.555 5.56055C117.555 5.03143 117.429 4.62125 117.178 4.33008C116.939 4.02562 116.588 3.81351 116.125 3.69434C115.675 3.56194 115.132 3.49512 114.496 3.49512H112.569V7.62598ZM201.767 7.62598H203.693C204.329 7.62597 204.872 7.56642 205.322 7.44727C205.785 7.31491 206.136 7.10347 206.374 6.8125C206.626 6.50798 206.752 6.09015 206.752 5.56055C206.752 5.0312 206.625 4.62127 206.374 4.33008C206.136 4.02566 205.785 3.81352 205.322 3.69434C204.872 3.56194 204.329 3.49512 203.693 3.49512H201.767V7.62598ZM35.3525 3.03906C35.3525 3.79359 35.1404 4.36316 34.7168 4.74707C34.2932 5.11773 33.7236 5.3027 33.0088 5.30273V3.99219C33.3397 3.99215 33.5645 3.90549 33.6836 3.7334C33.8026 3.56136 33.8623 3.33009 33.8623 3.03906H32.3135V0H35.3525V3.03906ZM124.549 3.03906C124.549 3.79355 124.338 4.36316 123.914 4.74707C123.49 5.11772 122.921 5.30266 122.206 5.30273V3.99219C122.537 3.99212 122.762 3.90545 122.881 3.7334C123 3.56137 123.06 3.33003 123.06 3.03906H121.511V0H124.549V3.03906ZM213.746 3.03906C213.746 3.79359 213.534 4.36316 213.11 4.74707C212.687 5.11759 212.117 5.30273 211.402 5.30273V3.99219C211.733 3.99219 211.959 3.90552 212.078 3.7334C212.197 3.56138 212.257 3.32997 212.257 3.03906H210.708V0H213.746V3.03906Z" fill="url(#paint1_linear_45_2)"/>
</g>
<rect x="0.5" y="0.5" width="172" height="49" rx="24.5" stroke="url(#paint2_linear_45_2)"/>
<defs>
<linearGradient id="paint0_linear_45_2" x1="86.5" y1="50" x2="86.5" y2="2.17943e-06" gradientUnits="userSpaceOnUse">
<stop stop-color="#16231A"/>
<stop offset="1"/>
</linearGradient>
<linearGradient id="paint1_linear_45_2" x1="60.2114" y1="0" x2="60.2114" y2="50" gradientUnits="userSpaceOnUse">
<stop stop-opacity="0.5"/>
<stop offset="0.283654" stop-color="#54E0A6" stop-opacity="0.783654"/>
<stop offset="0.5" stop-color="white"/>
<stop offset="0.663462" stop-color="#E0A854" stop-opacity="0.783654"/>
<stop offset="0.855769" stop-color="#9688FF" stop-opacity="0.639423"/>
<stop offset="1" stop-opacity="0.5"/>
</linearGradient>
<linearGradient id="paint2_linear_45_2" x1="86.5" y1="0" x2="86.5" y2="50" gradientUnits="userSpaceOnUse">
<stop stop-color="white"/>
<stop offset="1" stop-color="#999999" stop-opacity="0.3"/>
</linearGradient>
<clipPath id="clip0_45_2">
<rect width="173" height="50" rx="25" fill="white"/>
</clipPath>
</defs>
</svg>
