<svg width="64" height="50" viewBox="0 0 64 50" fill="none" xmlns="http://www.w3.org/2000/svg">
<g clip-path="url(#clip0_59_184)">
<rect width="64" height="50" rx="25" fill="url(#paint0_linear_59_184)"/>
<path d="M-146.128 35.4619C-144.261 35.4619 -142.805 35.9592 -141.759 36.9521C-140.7 37.9319 -140.064 39.2557 -139.853 40.9238H-142.911C-142.977 40.4738 -143.089 40.0766 -143.248 39.7324C-143.407 39.3751 -143.619 39.0771 -143.884 38.8389C-144.135 38.5873 -144.447 38.4014 -144.817 38.2822C-145.188 38.1499 -145.625 38.084 -146.128 38.084C-147.028 38.084 -147.77 38.3086 -148.353 38.7588C-148.922 39.1957 -149.339 39.7723 -149.604 40.4873C-149.868 41.1888 -150.001 41.93 -150.001 42.7109C-150.001 43.5053 -149.868 44.2606 -149.604 44.9756C-149.339 45.6771 -148.922 46.253 -148.353 46.7031C-147.77 47.1533 -147.028 47.3779 -146.128 47.3779C-145.572 47.3779 -145.095 47.2985 -144.698 47.1396C-144.301 46.9808 -143.97 46.7561 -143.705 46.4648C-143.427 46.1736 -143.215 45.8226 -143.069 45.4121C-142.924 45.0017 -142.832 44.5378 -142.792 44.0215H-139.772C-139.865 45.2131 -140.17 46.2598 -140.687 47.1602C-141.19 48.0603 -141.898 48.7616 -142.812 49.2646C-143.712 49.7545 -144.817 50 -146.128 50C-147.598 50 -148.849 49.6751 -149.882 49.0264C-150.901 48.3645 -151.676 47.4844 -152.205 46.3857C-152.735 45.2868 -153 44.0614 -153 42.7109C-153 41.7181 -152.854 40.7849 -152.562 39.9111C-152.258 39.0241 -151.815 38.2489 -151.232 37.5869C-150.65 36.9249 -149.934 36.4088 -149.087 36.0381C-148.226 35.6542 -147.24 35.4619 -146.128 35.4619ZM-131.796 35.4619C-130.697 35.4619 -129.723 35.6541 -128.876 36.0381C-128.015 36.4088 -127.293 36.9249 -126.711 37.5869C-126.128 38.2489 -125.692 39.0241 -125.4 39.9111C-125.096 40.7848 -124.943 41.7181 -124.943 42.7109C-124.943 44.0614 -125.209 45.2868 -125.738 46.3857C-126.268 47.4844 -127.042 48.3645 -128.062 49.0264C-129.081 49.6751 -130.326 50 -131.796 50C-133.265 49.9999 -134.516 49.6751 -135.549 49.0264C-136.568 48.3644 -137.343 47.4846 -137.873 46.3857C-138.403 45.2868 -138.667 44.0614 -138.667 42.7109C-138.667 41.7181 -138.522 40.7848 -138.23 39.9111C-137.926 39.0241 -137.482 38.2489 -136.899 37.5869C-136.317 36.9251 -135.602 36.4088 -134.755 36.0381C-133.894 35.6542 -132.908 35.462 -131.796 35.4619ZM-104.203 35.4619C-103.17 35.4619 -102.25 35.6677 -101.442 36.0781C-100.635 36.4885 -99.9995 37.0509 -99.5361 37.7656C-99.0596 38.4805 -98.8214 39.2883 -98.8213 40.1885H-101.84C-101.893 39.5267 -102.125 39.0103 -102.535 38.6396C-102.932 38.269 -103.522 38.084 -104.303 38.084C-105.071 38.084 -105.66 38.223 -106.07 38.501C-106.481 38.779 -106.686 39.1301 -106.686 39.5537C-106.685 39.9508 -106.54 40.2623 -106.249 40.4873C-105.958 40.7123 -105.573 40.8973 -105.097 41.043C-104.607 41.1886 -104.077 41.3276 -103.508 41.46C-102.925 41.5791 -102.349 41.7317 -101.78 41.917C-101.211 42.1023 -100.688 42.3541 -100.211 42.6719C-99.7214 42.9895 -99.3312 43.4131 -99.04 43.9424C-98.7488 44.4587 -98.6025 45.1211 -98.6025 45.9287C-98.6026 47.2129 -99.0863 48.2128 -100.053 48.9277C-101.019 49.6425 -102.377 50 -104.124 50C-105.196 50 -106.157 49.7942 -107.004 49.3838C-107.851 48.9734 -108.526 48.4111 -109.029 47.6963C-109.532 46.9813 -109.804 46.1665 -109.844 45.2529H-106.805C-106.752 45.6899 -106.599 46.068 -106.348 46.3857C-106.096 46.7032 -105.772 46.9481 -105.375 47.1201C-104.965 47.2922 -104.508 47.3779 -104.005 47.3779C-103.33 47.3779 -102.76 47.266 -102.297 47.041C-101.834 46.8027 -101.602 46.4317 -101.602 45.9287C-101.602 45.5713 -101.747 45.286 -102.038 45.0742C-102.329 44.8624 -102.72 44.691 -103.21 44.5586C-103.687 44.4262 -104.21 44.2935 -104.779 44.1611C-105.349 44.0288 -105.924 43.8699 -106.507 43.6846C-107.076 43.486 -107.606 43.2206 -108.096 42.8896C-108.572 42.5587 -108.957 42.1282 -109.248 41.5986C-109.539 41.0559 -109.685 40.3742 -109.685 39.5537C-109.685 38.7593 -109.453 38.0573 -108.989 37.4482C-108.513 36.826 -107.864 36.3423 -107.043 35.998C-106.209 35.6407 -105.262 35.4619 -104.203 35.4619ZM-90.4854 35.4619C-88.6185 35.4619 -87.1622 35.9592 -86.1162 36.9521C-85.057 37.9319 -84.4208 39.2556 -84.209 40.9238H-87.2676C-87.3338 40.4737 -87.4466 40.0766 -87.6055 39.7324C-87.7643 39.3749 -87.9764 39.0772 -88.2412 38.8389C-88.4927 38.5874 -88.8033 38.4014 -89.1738 38.2822C-89.5445 38.1498 -89.9822 38.084 -90.4854 38.084C-91.3853 38.084 -92.1265 38.3089 -92.709 38.7588C-93.2783 39.1957 -93.6961 39.7723 -93.9609 40.4873C-94.2256 41.1888 -94.3574 41.9301 -94.3574 42.7109C-94.3574 43.5053 -94.2257 44.2606 -93.9609 44.9756C-93.6961 45.6772 -93.2783 46.253 -92.709 46.7031C-92.1265 47.1531 -91.3854 47.3779 -90.4854 47.3779C-89.9293 47.3779 -89.4519 47.2985 -89.0547 47.1396C-88.6578 46.9808 -88.3272 46.7559 -88.0625 46.4648C-87.7845 46.1736 -87.5724 45.8225 -87.4268 45.4121C-87.2811 45.0017 -87.1882 44.5378 -87.1484 44.0215H-84.1299C-84.2226 45.2131 -84.5266 46.2598 -85.043 47.1602C-85.546 48.0603 -86.2547 48.7616 -87.168 49.2646C-88.0683 49.7545 -89.1746 50 -90.4854 50C-91.9548 49.9999 -93.2057 49.6751 -94.2383 49.0264C-95.2577 48.3644 -96.0329 47.4845 -96.5625 46.3857C-97.0921 45.2868 -97.3564 44.0614 -97.3564 42.7109C-97.3564 41.7181 -97.2111 40.7848 -96.9199 39.9111C-96.6154 39.0241 -96.1714 38.2489 -95.5889 37.5869C-95.0064 36.9251 -94.2915 36.4087 -93.4443 36.0381C-92.5838 35.6542 -91.5974 35.462 -90.4854 35.4619ZM-45.7803 35.4619C-43.9136 35.462 -42.457 35.9592 -41.4111 36.9521C-40.3521 37.9319 -39.7167 39.2557 -39.5049 40.9238H-42.5635C-42.6297 40.4738 -42.7416 40.0766 -42.9004 39.7324C-43.0592 39.3751 -43.2715 39.0771 -43.5361 38.8389C-43.7877 38.5873 -44.099 38.4014 -44.4697 38.2822C-44.8404 38.1499 -45.2773 38.084 -45.7803 38.084C-46.6805 38.084 -47.4223 38.3087 -48.0049 38.7588C-48.5742 39.1957 -48.9911 39.7723 -49.2559 40.4873C-49.5205 41.1889 -49.6533 41.93 -49.6533 42.7109C-49.6533 43.5053 -49.5207 44.2606 -49.2559 44.9756C-48.9911 45.6771 -48.5741 46.253 -48.0049 46.7031C-47.4223 47.1533 -46.6806 47.3779 -45.7803 47.3779C-45.2243 47.3779 -44.7477 47.2985 -44.3506 47.1396C-43.9534 46.9808 -43.6222 46.7561 -43.3574 46.4648C-43.0794 46.1736 -42.8673 45.8225 -42.7217 45.4121C-42.5761 45.0017 -42.4841 44.5378 -42.4443 44.0215H-39.4258C-39.5185 45.2131 -39.8225 46.2598 -40.3389 47.1602C-40.8419 48.0603 -41.5505 48.7616 -42.4639 49.2646C-43.3641 49.7545 -44.4696 50 -45.7803 50C-47.2499 50 -48.5015 49.6751 -49.5342 49.0264C-50.5534 48.3645 -51.3279 47.4844 -51.8574 46.3857C-52.387 45.2868 -52.6523 44.0614 -52.6523 42.7109C-52.6523 41.7181 -52.5061 40.7849 -52.2148 39.9111C-51.9103 39.0241 -51.4673 38.2489 -50.8848 37.5869C-50.3022 36.925 -49.5866 36.4088 -48.7393 36.0381C-47.8787 35.6542 -46.8923 35.4619 -45.7803 35.4619ZM-15.0088 35.4619C-13.142 35.4619 -11.6856 35.9592 -10.6396 36.9521C-9.58045 37.9319 -8.94426 39.2556 -8.73242 40.9238H-11.791C-11.8572 40.4737 -11.9701 40.0766 -12.1289 39.7324C-12.2878 39.3749 -12.4998 39.0772 -12.7646 38.8389C-13.0161 38.5874 -13.3267 38.4014 -13.6973 38.2822C-14.068 38.1498 -14.5057 38.084 -15.0088 38.084C-15.9088 38.084 -16.65 38.3089 -17.2324 38.7588C-17.8017 39.1957 -18.2196 39.7723 -18.4844 40.4873C-18.749 41.1888 -18.8808 41.9301 -18.8809 42.7109C-18.8809 43.5053 -18.7492 44.2606 -18.4844 44.9756C-18.2196 45.6772 -17.8017 46.253 -17.2324 46.7031C-16.65 47.1531 -15.9088 47.3779 -15.0088 47.3779C-14.4527 47.3779 -13.9753 47.2985 -13.5781 47.1396C-13.1812 46.9808 -12.8506 46.7559 -12.5859 46.4648C-12.3079 46.1736 -12.0958 45.8225 -11.9502 45.4121C-11.8046 45.0017 -11.7116 44.5378 -11.6719 44.0215H-8.65332C-8.746 45.2131 -9.05004 46.2598 -9.56641 47.1602C-10.0694 48.0603 -10.7781 48.7616 -11.6914 49.2646C-12.5917 49.7545 -13.698 50 -15.0088 50C-16.4782 49.9999 -17.7291 49.6751 -18.7617 49.0264C-19.7811 48.3644 -20.5563 47.4846 -21.0859 46.3857C-21.6155 45.2868 -21.8799 44.0614 -21.8799 42.7109C-21.8799 41.7181 -21.7346 40.7848 -21.4434 39.9111C-21.1388 39.0241 -20.6949 38.2489 -20.1123 37.5869C-19.5298 36.9251 -18.815 36.4088 -17.9678 36.0381C-17.1073 35.6542 -16.1208 35.462 -15.0088 35.4619ZM-0.675781 35.4619C0.42295 35.4619 1.39591 35.6543 2.24316 36.0381C3.10364 36.4088 3.82569 36.925 4.4082 37.5869C4.99076 38.2489 5.42747 39.0241 5.71875 39.9111C6.02323 40.7849 6.17576 41.7181 6.17578 42.7109C6.17578 44.0614 5.91144 45.2868 5.38184 46.3857C4.85224 47.4845 4.07702 48.3644 3.05762 49.0264C2.03815 49.6751 0.793824 50 -0.675781 50C-2.14542 50 -3.39697 49.6751 -4.42969 49.0264C-5.44886 48.3645 -6.2234 47.4843 -6.75293 46.3857C-7.28253 45.2868 -7.54785 44.0614 -7.54785 42.7109C-7.54783 41.7181 -7.40157 40.7849 -7.11035 39.9111C-6.80583 39.0241 -6.36283 38.2489 -5.78027 37.5869C-5.19771 36.9249 -4.48213 36.4088 -3.63477 36.0381C-2.77421 35.6542 -1.78786 35.4619 -0.675781 35.4619ZM26.916 35.4619C27.9487 35.4619 28.8691 35.6677 29.6768 36.0781C30.4844 36.4886 31.1206 37.0507 31.584 37.7656C32.0605 38.4805 32.2987 39.2883 32.2988 40.1885H29.2793C29.2263 39.5268 28.9953 39.0103 28.585 38.6396C28.1878 38.269 27.5984 38.084 26.8174 38.084C26.0495 38.084 25.4602 38.223 25.0498 38.501C24.6394 38.779 24.4336 39.13 24.4336 39.5537C24.4337 39.9508 24.5799 40.2623 24.8711 40.4873C25.1623 40.7122 25.5461 40.8974 26.0225 41.043C26.5123 41.1886 27.0421 41.3276 27.6113 41.46C28.1938 41.5791 28.7697 41.7317 29.3389 41.917C29.9082 42.1024 30.4316 42.3541 30.9082 42.6719C31.398 42.9896 31.7888 43.4129 32.0801 43.9424C32.3714 44.4587 32.5166 45.1211 32.5166 45.9287C32.5165 47.2129 32.0339 48.2128 31.0674 48.9277C30.1009 49.6426 28.7436 50 26.9961 50C25.9237 50 24.9636 49.7942 24.1162 49.3838C23.269 48.9734 22.5939 48.4111 22.0908 47.6963C21.5877 46.9813 21.3161 46.1665 21.2764 45.2529H24.3145C24.3674 45.6899 24.5199 46.068 24.7715 46.3857C25.023 46.7034 25.348 46.948 25.7451 47.1201C26.1555 47.2921 26.6123 47.3779 27.1152 47.3779C27.7904 47.3779 28.3599 47.2661 28.8232 47.041C29.2865 46.8027 29.5185 46.4317 29.5186 45.9287C29.5186 45.5712 29.3723 45.2861 29.0811 45.0742C28.7898 44.8624 28.3989 44.691 27.9092 44.5586C27.4327 44.4262 26.91 44.2935 26.3408 44.1611C25.7715 44.0287 25.1949 43.8699 24.6123 43.6846C24.0431 43.486 23.5133 43.2206 23.0234 42.8896C22.547 42.5587 22.1633 42.1281 21.8721 41.5986C21.5809 41.0559 21.4346 40.3743 21.4346 39.5537C21.4346 38.7594 21.6665 38.0573 22.1299 37.4482C22.6065 36.826 23.2553 36.3423 24.0762 35.998C24.9102 35.6406 25.857 35.462 26.916 35.4619ZM40.6348 35.4619C42.5016 35.4619 43.958 35.9592 45.0039 36.9521C46.063 37.9319 46.6983 39.2557 46.9102 40.9238H43.8516C43.7854 40.4738 43.6735 40.0766 43.5146 39.7324C43.3558 39.375 43.1436 39.0772 42.8789 38.8389C42.6273 38.5873 42.316 38.4014 41.9453 38.2822C41.5746 38.1499 41.1378 38.084 40.6348 38.084C39.7344 38.084 38.9927 38.3086 38.4102 38.7588C37.8408 39.1957 37.424 39.7723 37.1592 40.4873C36.8945 41.1888 36.7617 41.93 36.7617 42.7109C36.7617 43.5053 36.8944 44.2606 37.1592 44.9756C37.424 45.6771 37.841 46.253 38.4102 46.7031C38.9927 47.1533 39.7344 47.3779 40.6348 47.3779C41.1908 47.3779 41.6673 47.2985 42.0645 47.1396C42.4616 46.9808 42.7928 46.7561 43.0576 46.4648C43.3357 46.1736 43.5477 45.8226 43.6934 45.4121C43.839 45.0017 43.931 44.5378 43.9707 44.0215H46.9902C46.8976 45.2131 46.5925 46.2598 46.0762 47.1602C45.5731 48.0603 44.8646 48.7616 43.9512 49.2646C43.0509 49.7545 41.9455 50 40.6348 50C39.1651 50 37.9136 49.6751 36.8809 49.0264C35.8617 48.3645 35.0872 47.4844 34.5576 46.3857C34.028 45.2868 33.7627 44.0614 33.7627 42.7109C33.7627 41.7181 33.909 40.7849 34.2002 39.9111C34.5047 39.0241 34.9477 38.2489 35.5303 37.5869C36.1128 36.9249 36.8284 36.4088 37.6758 36.0381C38.5363 35.6542 39.5227 35.4619 40.6348 35.4619ZM85.3389 35.4619C87.2057 35.4619 88.662 35.9591 89.708 36.9521C90.7672 37.9319 91.4034 39.2556 91.6152 40.9238H88.5566C88.4905 40.4737 88.3776 40.0766 88.2188 39.7324C88.0599 39.375 87.8478 39.0772 87.583 38.8389C87.3314 38.5873 87.0201 38.4014 86.6494 38.2822C86.2788 38.1499 85.8418 38.084 85.3389 38.084C84.4389 38.084 83.6977 38.3089 83.1152 38.7588C82.5459 39.1957 82.1281 39.7723 81.8633 40.4873C81.5986 41.1888 81.4668 41.9301 81.4668 42.7109C81.4668 43.5053 81.5985 44.2606 81.8633 44.9756C82.1281 45.6772 82.546 46.253 83.1152 46.7031C83.6977 47.1531 84.4388 47.3779 85.3389 47.3779C85.8949 47.3779 86.3723 47.2985 86.7695 47.1396C87.1664 46.9808 87.4971 46.7559 87.7617 46.4648C88.0398 46.1736 88.2518 45.8225 88.3975 45.4121C88.5431 45.0017 88.6361 44.5378 88.6758 44.0215H91.6943C91.6017 45.2131 91.2976 46.2598 90.7812 47.1602C90.2781 48.0604 89.5688 48.7615 88.6553 49.2646C87.755 49.7544 86.6495 50 85.3389 50C83.8694 50 82.6186 49.675 81.5859 49.0264C80.5665 48.3644 79.7913 47.4845 79.2617 46.3857C78.7321 45.2868 78.4678 44.0614 78.4678 42.7109C78.4678 41.7181 78.6131 40.7848 78.9043 39.9111C79.2088 39.0241 79.6528 38.2489 80.2354 37.5869C80.8178 36.9251 81.5327 36.4087 82.3799 36.0381C83.2404 35.6542 84.2268 35.4619 85.3389 35.4619ZM116.111 35.4619C117.978 35.4619 119.435 35.9592 120.48 36.9521C121.54 37.9319 122.175 39.2557 122.387 40.9238H119.328C119.262 40.4738 119.15 40.0766 118.991 39.7324C118.832 39.375 118.62 39.0772 118.355 38.8389C118.104 38.5873 117.793 38.4014 117.422 38.2822C117.051 38.1499 116.614 38.084 116.111 38.084C115.211 38.084 114.469 38.3086 113.887 38.7588C113.317 39.1957 112.901 39.7724 112.636 40.4873C112.371 41.1888 112.238 41.93 112.238 42.7109C112.238 43.5053 112.371 44.2606 112.636 44.9756C112.901 45.6771 113.318 46.253 113.887 46.7031C114.469 47.1533 115.211 47.3779 116.111 47.3779C116.667 47.3779 117.144 47.2985 117.541 47.1396C117.938 46.9808 118.269 46.7561 118.534 46.4648C118.812 46.1736 119.024 45.8226 119.17 45.4121C119.316 45.0017 119.408 44.5378 119.447 44.0215H122.467C122.374 45.2131 122.069 46.2598 121.553 47.1602C121.05 48.0603 120.341 48.7616 119.428 49.2646C118.527 49.7545 117.422 50 116.111 50C114.642 50 113.39 49.6751 112.357 49.0264C111.338 48.3645 110.564 47.4843 110.034 46.3857C109.505 45.2868 109.239 44.0614 109.239 42.7109C109.239 41.7181 109.386 40.7849 109.677 39.9111C109.981 39.0241 110.424 38.2489 111.007 37.5869C111.589 36.9249 112.305 36.4088 113.152 36.0381C114.013 35.6542 114.999 35.4619 116.111 35.4619ZM130.444 35.4619C131.543 35.462 132.516 35.6542 133.363 36.0381C134.224 36.4088 134.946 36.9249 135.528 37.5869C136.111 38.2489 136.548 39.0241 136.839 39.9111C137.143 40.7848 137.296 41.7181 137.296 42.7109C137.296 44.0614 137.031 45.2868 136.501 46.3857C135.971 47.4844 135.197 48.3645 134.178 49.0264C133.158 49.6751 131.914 49.9999 130.444 50C128.975 50 127.723 49.6751 126.69 49.0264C125.671 48.3644 124.896 47.4846 124.366 46.3857C123.837 45.2868 123.572 44.0614 123.572 42.7109C123.572 41.7181 123.718 40.7848 124.009 39.9111C124.313 39.0241 124.757 38.2489 125.34 37.5869C125.922 36.9251 126.637 36.4088 127.484 36.0381C128.345 35.6541 129.332 35.4619 130.444 35.4619ZM158.036 35.4619C159.069 35.4619 159.989 35.6677 160.797 36.0781C161.604 36.4885 162.24 37.0509 162.703 37.7656C163.18 38.4805 163.418 39.2883 163.418 40.1885H160.399C160.346 39.5267 160.114 39.0103 159.704 38.6396C159.307 38.2691 158.718 38.084 157.937 38.084C157.169 38.084 156.579 38.223 156.169 38.501C155.759 38.779 155.554 39.1301 155.554 39.5537C155.554 39.9508 155.699 40.2623 155.99 40.4873C156.282 40.7124 156.666 40.8973 157.143 41.043C157.632 41.1886 158.162 41.3276 158.731 41.46C159.314 41.5791 159.89 41.7317 160.459 41.917C161.028 42.1024 161.552 42.3541 162.028 42.6719C162.518 42.9895 162.908 43.4131 163.199 43.9424C163.49 44.4587 163.637 45.1211 163.637 45.9287C163.637 47.2129 163.153 48.2128 162.187 48.9277C161.22 49.6425 159.863 50 158.115 50C157.043 50 156.083 49.7942 155.235 49.3838C154.388 48.9734 153.713 48.4111 153.21 47.6963C152.707 46.9813 152.435 46.1665 152.396 45.2529H155.435C155.488 45.6899 155.64 46.068 155.892 46.3857C156.143 46.7033 156.467 46.9481 156.864 47.1201C157.275 47.2922 157.731 47.3779 158.234 47.3779C158.909 47.3779 159.479 47.266 159.942 47.041C160.406 46.8027 160.638 46.4317 160.638 45.9287C160.638 45.5713 160.492 45.2861 160.201 45.0742C159.91 44.8624 159.519 44.691 159.029 44.5586C158.553 44.4262 158.029 44.2935 157.46 44.1611C156.891 44.0288 156.315 43.8699 155.732 43.6846C155.163 43.486 154.633 43.2206 154.144 42.8896C153.667 42.5587 153.282 42.1282 152.991 41.5986C152.7 41.0559 152.555 40.3742 152.555 39.5537C152.555 38.7593 152.787 38.0573 153.25 37.4482C153.727 36.826 154.375 36.3423 155.196 35.998C156.03 35.6407 156.977 35.4619 158.036 35.4619ZM171.754 35.4619C173.621 35.4619 175.077 35.9592 176.123 36.9521C177.182 37.9319 177.818 39.2556 178.03 40.9238H174.972C174.905 40.4737 174.793 40.0766 174.634 39.7324C174.475 39.3749 174.263 39.0772 173.998 38.8389C173.747 38.5874 173.436 38.4014 173.065 38.2822C172.695 38.1498 172.257 38.084 171.754 38.084C170.854 38.0841 170.113 38.3088 169.53 38.7588C168.961 39.1957 168.544 39.7723 168.279 40.4873C168.015 41.1889 167.882 41.93 167.882 42.7109C167.882 43.5053 168.014 44.2606 168.279 44.9756C168.544 45.6771 168.961 46.2531 169.53 46.7031C170.113 47.1531 170.854 47.3779 171.754 47.3779C172.31 47.3779 172.787 47.2985 173.185 47.1396C173.582 46.9808 173.913 46.756 174.178 46.4648C174.456 46.1736 174.667 45.8224 174.812 45.4121C174.958 45.0017 175.051 44.5378 175.091 44.0215H178.109C178.017 45.2131 177.713 46.2598 177.196 47.1602C176.693 48.0603 175.985 48.7616 175.071 49.2646C174.171 49.7545 173.065 50 171.754 50C170.284 49.9999 169.034 49.6751 168.001 49.0264C166.982 48.3644 166.206 47.4846 165.677 46.3857C165.147 45.2868 164.883 44.0614 164.883 42.7109C164.883 41.7181 165.028 40.7848 165.319 39.9111C165.624 39.0241 166.068 38.2489 166.65 37.5869C167.233 36.9251 167.948 36.4088 168.795 36.0381C169.655 35.6542 170.642 35.462 171.754 35.4619ZM216.459 35.4619C218.326 35.4619 219.782 35.9592 220.828 36.9521C221.887 37.9319 222.523 39.2557 222.734 40.9238H219.676C219.61 40.4738 219.498 40.0766 219.339 39.7324C219.18 39.3751 218.968 39.0771 218.703 38.8389C218.452 38.5873 218.14 38.4014 217.77 38.2822C217.399 38.1499 216.962 38.084 216.459 38.084C215.559 38.084 214.817 38.3087 214.234 38.7588C213.665 39.1957 213.248 39.7723 212.983 40.4873C212.719 41.1888 212.586 41.93 212.586 42.7109C212.586 43.5053 212.719 44.2606 212.983 44.9756C213.248 45.6771 213.665 46.253 214.234 46.7031C214.817 47.1533 215.559 47.3779 216.459 47.3779C217.015 47.3779 217.492 47.2985 217.889 47.1396C218.286 46.9808 218.617 46.7561 218.882 46.4648C219.16 46.1736 219.372 45.8226 219.518 45.4121C219.663 45.0017 219.755 44.5378 219.795 44.0215H222.814C222.722 45.2131 222.417 46.2598 221.9 47.1602C221.397 48.0603 220.689 48.7616 219.775 49.2646C218.875 49.7545 217.77 50 216.459 50C214.989 50 213.738 49.6751 212.705 49.0264C211.686 48.3645 210.911 47.4844 210.382 46.3857C209.852 45.2868 209.587 44.0614 209.587 42.7109C209.587 41.7181 209.733 40.7849 210.024 39.9111C210.329 39.0241 210.772 38.2489 211.354 37.5869C211.937 36.9249 212.653 36.4088 213.5 36.0381C214.361 35.6542 215.347 35.4619 216.459 35.4619ZM-114.396 46.0439V35.7803H-111.616V49.6816H-115.866L-120.573 39.417V49.6816H-123.354V35.7803H-119.104L-114.396 46.0439ZM-79.668 49.6816H-82.5479V35.7803H-79.668V49.6816ZM-67.9297 38.2822H-74.7217V41.4404H-68.7246V43.9424H-74.7217V47.1797H-67.8506V49.6816H-77.6016V35.7803H-67.9297V38.2822ZM-57.0273 46.0439V35.7803H-54.2471V49.6816H-58.4971L-63.2041 39.417V49.6816H-65.9844V35.7803H-61.7344L-57.0273 46.0439ZM-28.1709 38.2822H-34.9629V41.4404H-28.9658V43.9424H-34.9629V47.1797H-28.0918V49.6816H-37.8428V35.7803H-28.1709V38.2822ZM16.7227 46.042V35.7803H19.5039V49.6816H15.2529L10.5469 39.4189V49.6816H7.7666V35.7803H12.0166L16.7227 46.042ZM51.4521 49.6816H48.5723V35.7803H51.4521V49.6816ZM63.1895 38.2822H56.3975V41.4404H62.3955V43.9424H56.3975V47.1797H63.2695V49.6816H53.5176V35.7803H63.1895V38.2822ZM74.0918 46.042V35.7803H76.8721V49.6816H72.6221L67.916 39.4189V49.6816H65.1357V35.7803H69.3857L74.0918 46.042ZM102.948 38.2822H96.1562V41.4404H102.154V43.9424H96.1562V47.1797H103.028V49.6816H93.2764V35.7803H102.948V38.2822ZM147.843 46.0439V35.7803H150.623V49.6816H146.373L141.666 39.417V49.6816H138.886V35.7803H143.136L147.843 46.0439ZM182.571 49.6816H179.692V35.7803H182.571V49.6816ZM194.31 38.2822H187.518V41.4404H193.515V43.9424H187.518V47.1797H194.389V49.6816H184.638V35.7803H194.31V38.2822ZM205.212 46.0439V35.7803H207.992V49.6816H203.742L199.035 39.417V49.6816H196.255V35.7803H200.505L205.212 46.0439ZM234.068 38.2822H227.276V41.4404H233.273V43.9424H227.276V47.1797H234.147V49.6816H224.396V35.7803H234.068V38.2822ZM-131.796 38.084C-132.696 38.0841 -133.437 38.3088 -134.02 38.7588C-134.589 39.1957 -135.006 39.7723 -135.271 40.4873C-135.535 41.1889 -135.668 41.93 -135.668 42.7109C-135.668 43.5053 -135.535 44.2606 -135.271 44.9756C-135.006 45.6771 -134.589 46.2531 -134.02 46.7031C-133.437 47.1531 -132.696 47.3779 -131.796 47.3779C-130.896 47.3779 -130.16 47.1533 -129.591 46.7031C-129.022 46.253 -128.605 45.6771 -128.34 44.9756C-128.075 44.2606 -127.942 43.5053 -127.942 42.7109C-127.942 41.93 -128.075 41.1888 -128.34 40.4873C-128.605 39.7723 -129.022 39.1957 -129.591 38.7588C-130.16 38.3086 -130.896 38.084 -131.796 38.084ZM-0.675781 38.084C-1.5761 38.084 -2.31783 38.3086 -2.90039 38.7588C-3.46968 39.1957 -3.88657 39.7724 -4.15137 40.4873C-4.41604 41.1888 -4.5488 41.93 -4.54883 42.7109C-4.54883 43.5053 -4.41617 44.2606 -4.15137 44.9756C-3.88658 45.6771 -3.46957 46.253 -2.90039 46.7031C-2.31783 47.1533 -1.5761 47.3779 -0.675781 47.3779C0.224397 47.3779 0.95904 47.1531 1.52832 46.7031C2.09759 46.253 2.51547 45.6772 2.78027 44.9756C3.04507 44.2606 3.17676 43.5053 3.17676 42.7109C3.17673 41.9301 3.04491 41.1888 2.78027 40.4873C2.51547 39.7723 2.09764 39.1957 1.52832 38.7588C0.959049 38.3088 0.22436 38.084 -0.675781 38.084ZM130.444 38.084C129.544 38.084 128.802 38.3087 128.22 38.7588C127.65 39.1957 127.234 39.7723 126.969 40.4873C126.704 41.1889 126.571 41.93 126.571 42.7109C126.571 43.5053 126.704 44.2606 126.969 44.9756C127.234 45.6771 127.651 46.2531 128.22 46.7031C128.802 47.1532 129.544 47.3779 130.444 47.3779C131.344 47.3779 132.079 47.1532 132.648 46.7031C133.218 46.253 133.635 45.6771 133.899 44.9756C134.164 44.2606 134.297 43.5053 134.297 42.7109C134.297 41.93 134.164 41.1888 133.899 40.4873C133.635 39.7723 133.218 39.1957 132.648 38.7588C132.079 38.3087 131.344 38.0841 130.444 38.084ZM-103.27 17.623C-102.237 17.6231 -101.316 17.8279 -100.509 18.2383C-99.7012 18.6487 -99.0659 19.2119 -98.6025 19.9268C-98.126 20.6417 -97.8877 21.4493 -97.8877 22.3496H-100.906C-100.959 21.6877 -101.191 21.1715 -101.602 20.8008C-101.999 20.4301 -102.588 20.2441 -103.369 20.2441C-104.137 20.2442 -104.726 20.3831 -105.137 20.6611C-105.547 20.9391 -105.752 21.2903 -105.752 21.7139C-105.752 22.111 -105.607 22.4224 -105.315 22.6475C-105.024 22.8725 -104.64 23.0575 -104.163 23.2031C-103.673 23.3487 -103.143 23.4877 -102.574 23.6201C-101.992 23.7393 -101.416 23.8918 -100.847 24.0771C-100.277 24.2625 -99.754 24.5143 -99.2773 24.832C-98.7876 25.1498 -98.3977 25.574 -98.1064 26.1035C-97.8153 26.6198 -97.669 27.2814 -97.6689 28.0889C-97.6689 29.3731 -98.1526 30.3729 -99.1191 31.0879C-100.086 31.8028 -101.443 32.1602 -103.19 32.1602C-104.263 32.1601 -105.223 31.9553 -106.07 31.5449C-106.918 31.1345 -107.593 30.5713 -108.096 29.8564C-108.599 29.1416 -108.87 28.3275 -108.91 27.4141H-105.871C-105.818 27.8508 -105.666 28.2282 -105.415 28.5459C-105.164 28.8636 -104.839 29.1082 -104.441 29.2803C-104.031 29.4524 -103.574 29.539 -103.071 29.5391C-102.396 29.5391 -101.827 29.4262 -101.363 29.2012C-100.9 28.9629 -100.668 28.592 -100.668 28.0889C-100.668 27.7317 -100.814 27.4471 -101.104 27.2354C-101.396 27.0236 -101.787 26.8511 -102.276 26.7188C-102.753 26.5863 -103.276 26.4537 -103.846 26.3213C-104.415 26.1889 -104.991 26.0301 -105.573 25.8447C-106.142 25.6462 -106.672 25.3817 -107.162 25.0508C-107.639 24.7198 -108.023 24.2894 -108.314 23.7598C-108.606 23.2169 -108.751 22.5347 -108.751 21.7139C-108.751 20.9195 -108.519 20.2174 -108.056 19.6084C-107.579 18.9863 -106.93 18.5033 -106.109 18.1592C-105.275 17.8018 -104.329 17.623 -103.27 17.623ZM-19.498 17.623C-18.3992 17.6231 -17.4264 17.8153 -16.5791 18.1992C-15.7185 18.5699 -14.9966 19.086 -14.4141 19.748C-13.8316 20.41 -13.3948 21.1844 -13.1035 22.0713C-12.799 22.9451 -12.6465 23.8791 -12.6465 24.8721C-12.6465 26.2224 -12.9118 27.4471 -13.4414 28.5459C-13.971 29.6447 -14.7452 30.5255 -15.7646 31.1875C-16.784 31.8362 -18.0286 32.1601 -19.498 32.1602C-20.9677 32.1602 -22.2192 31.8362 -23.252 31.1875C-24.2714 30.5255 -25.0456 29.6448 -25.5752 28.5459C-26.1048 27.4471 -26.3701 26.2224 -26.3701 24.8721C-26.3701 23.8791 -26.2239 22.9451 -25.9326 22.0713C-25.6281 21.1844 -25.185 20.4099 -24.6025 19.748C-24.02 19.086 -23.3044 18.5699 -22.457 18.1992C-21.5965 17.8153 -20.6101 17.623 -19.498 17.623ZM10.9023 17.623C11.935 17.623 12.8555 17.8279 13.6631 18.2383C14.4707 18.6487 15.1059 19.2118 15.5693 19.9268C16.046 20.6417 16.2842 21.4493 16.2842 22.3496H13.2656C13.2127 21.6876 12.9808 21.1715 12.5703 20.8008C12.1732 20.4302 11.5846 20.2442 10.8037 20.2441C10.0361 20.2441 9.44655 20.3833 9.03613 20.6611C8.62574 20.9391 8.41997 21.2903 8.41992 21.7139C8.41992 22.1111 8.56614 22.4224 8.85742 22.6475C9.14863 22.8724 9.53239 23.0575 10.0088 23.2031C10.4986 23.3488 11.0284 23.4877 11.5977 23.6201C12.1801 23.7393 12.756 23.8918 13.3252 24.0771C13.8945 24.2625 14.4179 24.5143 14.8945 24.832C15.3844 25.1498 15.7751 25.5739 16.0664 26.1035C16.3575 26.6198 16.5029 27.2816 16.5029 28.0889C16.5029 29.373 16.02 30.3729 15.0537 31.0879C14.0873 31.8028 12.7299 32.1601 10.9824 32.1602C9.9101 32.1602 8.94983 31.9553 8.10254 31.5449C7.25518 31.1345 6.57929 30.5714 6.07617 29.8564C5.57323 29.1416 5.30245 28.3274 5.2627 27.4141H8.30078C8.35376 27.8509 8.50629 28.2282 8.75781 28.5459C9.00927 28.8635 9.3335 29.1082 9.73047 29.2803C10.1409 29.4524 10.5984 29.5391 11.1016 29.5391C11.7766 29.539 12.3463 29.4262 12.8096 29.2012C13.2727 28.9628 13.5039 28.5918 13.5039 28.0889C13.5038 27.7316 13.3585 27.4471 13.0674 27.2354C12.7761 27.0235 12.3854 26.8512 11.8955 26.7188C11.4189 26.5864 10.8955 26.4537 10.3262 26.3213C9.757 26.1889 9.18104 26.03 8.59863 25.8447C8.02938 25.6461 7.4996 25.3817 7.00977 25.0508C6.5332 24.7198 6.14966 24.2892 5.8584 23.7598C5.56712 23.2169 5.4209 22.5347 5.4209 21.7139C5.42093 20.9195 5.65284 20.2174 6.11621 19.6084C6.59282 18.9863 7.24177 18.5034 8.0625 18.1592C8.89657 17.8017 9.84322 17.6231 10.9023 17.623ZM94.6738 17.623C95.7728 17.623 96.7464 17.8153 97.5938 18.1992C98.4541 18.5699 99.1754 19.0862 99.7578 19.748C100.34 20.41 100.777 21.1843 101.068 22.0713C101.373 22.9451 101.525 23.8791 101.525 24.8721C101.525 26.2224 101.261 27.4471 100.731 28.5459C100.202 29.6448 99.4267 30.5255 98.4072 31.1875C97.3878 31.8361 96.1433 32.1602 94.6738 32.1602C93.2042 32.1601 91.9526 31.8363 90.9199 31.1875C89.9005 30.5255 89.1262 29.6447 88.5967 28.5459C88.0671 27.4471 87.8028 26.2224 87.8027 24.8721C87.8027 23.8791 87.948 22.9451 88.2393 22.0713C88.5438 21.1843 88.9878 20.41 89.5703 19.748C90.1528 19.0861 90.8676 18.5699 91.7148 18.1992C92.5754 17.8153 93.5617 17.6231 94.6738 17.623ZM124.183 17.623C125.215 17.623 126.136 17.8279 126.943 18.2383C127.751 18.6487 128.386 19.2118 128.85 19.9268C129.326 20.6417 129.564 21.4493 129.564 22.3496H126.546C126.493 21.6876 126.261 21.1715 125.851 20.8008C125.453 20.4301 124.864 20.2441 124.083 20.2441C123.316 20.2442 122.727 20.3834 122.316 20.6611C121.906 20.9391 121.7 21.2903 121.7 21.7139C121.7 22.1111 121.846 22.4224 122.138 22.6475C122.429 22.8724 122.813 23.0575 123.289 23.2031C123.779 23.3488 124.309 23.4877 124.878 23.6201C125.46 23.7393 126.036 23.8918 126.605 24.0771C127.175 24.2625 127.698 24.5143 128.175 24.832C128.665 25.1498 129.055 25.574 129.347 26.1035C129.638 26.6198 129.783 27.2816 129.783 28.0889C129.783 29.373 129.3 30.3729 128.334 31.0879C127.368 31.8028 126.01 32.1601 124.263 32.1602C123.19 32.1602 122.23 31.9553 121.383 31.5449C120.535 31.1345 119.86 30.5714 119.356 29.8564C118.853 29.1416 118.583 28.3274 118.543 27.4141H121.581C121.634 27.8509 121.787 28.2282 122.038 28.5459C122.29 28.8635 122.614 29.1082 123.011 29.2803C123.421 29.4524 123.879 29.5391 124.382 29.5391C125.057 29.539 125.627 29.4262 126.09 29.2012C126.553 28.9628 126.784 28.5918 126.784 28.0889C126.784 27.7316 126.639 27.4471 126.348 27.2354C126.056 27.0235 125.666 26.8512 125.176 26.7188C124.699 26.5864 124.176 26.4537 123.606 26.3213C123.037 26.1889 122.461 26.03 121.879 25.8447C121.31 25.6461 120.78 25.3817 120.29 25.0508C119.813 24.7198 119.43 24.2892 119.139 23.7598C118.847 23.2169 118.701 22.5347 118.701 21.7139C118.701 20.9195 118.933 20.2174 119.396 19.6084C119.873 18.9863 120.522 18.5034 121.343 18.1592C122.177 17.8017 123.123 17.6231 124.183 17.623ZM207.954 17.623C209.053 17.623 210.027 17.8153 210.874 18.1992C211.734 18.5699 212.456 19.0862 213.038 19.748C213.621 20.41 214.057 21.1843 214.349 22.0713C214.653 22.9451 214.806 23.8791 214.806 24.8721C214.806 26.2224 214.541 27.4471 214.012 28.5459C213.482 29.6448 212.707 30.5255 211.688 31.1875C210.668 31.8361 209.424 32.1602 207.954 32.1602C206.484 32.1601 205.233 31.8363 204.2 31.1875C203.181 30.5255 202.407 29.6448 201.877 28.5459C201.347 27.4471 201.083 26.2224 201.083 24.8721C201.083 23.8791 201.228 22.9451 201.52 22.0713C201.824 21.1843 202.268 20.41 202.851 19.748C203.433 19.0861 204.148 18.5699 204.995 18.1992C205.856 17.8153 206.842 17.6231 207.954 17.623ZM-85.5088 20.4434H-89.8379V31.8428H-92.7178V20.4434H-97.0479V17.9404H-85.5088V20.4434ZM-79.3096 17.9404C-78.1049 17.9404 -77.0526 18.0867 -76.1523 18.3779C-75.2388 18.6692 -74.5295 19.1456 -74.0264 19.8076C-73.5102 20.4696 -73.252 21.3703 -73.252 22.5088C-73.252 23.6338 -73.5103 24.5339 -74.0264 25.209C-74.4537 25.7712 -75.0306 26.1974 -75.7539 26.4922L-73.1533 31.8428H-76.4297L-78.4629 27.0498C-78.7362 27.0668 -79.0184 27.0762 -79.3096 27.0762H-81.2363V31.8428H-84.1162V17.9404H-79.3096ZM-61.7012 20.4434H-68.4941V23.6006H-62.4961V26.1035H-68.4941V29.3398H-61.6221V31.8428H-71.373V17.9404H-61.7012V20.4434ZM-48.0361 31.8428H-50.9756L-51.8145 28.9229H-56.7109L-57.5498 31.8428H-60.4883L-56.2979 17.9404H-52.2266L-48.0361 31.8428ZM-39.2686 28.9561L-36.5771 17.9404H-31.9297V31.8428H-34.7109V22.0908L-37.2324 31.8428H-41.3037L-43.8262 22.0869V31.8428H-46.6064V17.9404H-41.959L-39.2686 28.9561ZM-1.58301 20.4434H-8.17676V23.998H-2.37793V26.5H-8.17676V31.8428H-11.0566V17.9404H-1.58301V20.4434ZM28.6631 20.4434H24.334V31.8428H21.4541V20.4434H17.125V17.9404H28.6631V20.4434ZM34.8623 17.9404C36.0671 17.9404 37.1202 18.0866 38.0205 18.3779C38.934 18.6692 39.6424 19.1457 40.1455 19.8076C40.6618 20.4696 40.9199 21.3702 40.9199 22.5088C40.9199 23.6338 40.6617 24.5339 40.1455 25.209C39.7183 25.7711 39.142 26.1974 38.4189 26.4922L41.0195 31.8428H37.7422L35.709 27.0498C35.4357 27.0668 35.1533 27.0762 34.8623 27.0762H32.9365V31.8428H30.0566V17.9404H34.8623ZM52.4707 20.4434H45.6787V23.6006H51.6758V26.1035H45.6787V29.3398H52.5498V31.8428H42.7988V17.9404H52.4707V20.4434ZM66.1357 31.8428H63.1963L62.3584 28.9229H57.4609L56.623 31.8428H53.6836L57.874 17.9404H61.9453L66.1357 31.8428ZM74.9033 28.957L77.5947 17.9404H82.2422V31.8428H79.4619V22.0869L76.9395 31.8428H72.8682L70.3457 22.0869V31.8428H67.5654V17.9404H72.2129L74.9033 28.957ZM112.589 20.4434H105.995V23.998H111.795V26.5H105.995V31.8428H103.116V17.9404H112.589V20.4434ZM141.943 20.4434H137.614V31.8428H134.734V20.4434H130.405V17.9404H141.943V20.4434ZM148.143 17.9404C149.347 17.9404 150.4 18.0866 151.301 18.3779C152.214 18.6692 152.923 19.1457 153.426 19.8076C153.942 20.4696 154.2 21.3702 154.2 22.5088C154.2 23.6338 153.942 24.5339 153.426 25.209C152.999 25.7711 152.422 26.1974 151.699 26.4922L154.3 31.8428H151.022L148.989 27.0498C148.716 27.0668 148.434 27.0762 148.143 27.0762H146.217V31.8428H143.337V17.9404H148.143ZM165.751 20.4434H158.959V23.6006H164.956V26.1035H158.959V29.3398H165.83V31.8428H156.079V17.9404H165.751V20.4434ZM179.416 31.8428H176.477L175.639 28.9229H170.741L169.903 31.8428H166.964L171.154 17.9404H175.226L179.416 31.8428ZM188.184 28.957L190.875 17.9404H195.522V31.8428H192.742V22.0869L190.22 31.8428H186.148L183.626 22.0869V31.8428H180.846V17.9404H185.493L188.184 28.957ZM225.869 20.4434H219.275V23.998H225.075V26.5H219.275V31.8428H216.396V17.9404H225.869V20.4434ZM-19.498 20.2441C-20.3984 20.2441 -21.1401 20.4698 -21.7227 20.9199C-22.2919 21.3568 -22.7089 21.9326 -22.9736 22.6475C-23.2384 23.3492 -23.3711 24.0909 -23.3711 24.8721C-23.3711 25.6664 -23.2384 26.4209 -22.9736 27.1357C-22.7089 27.8374 -22.2919 28.4131 -21.7227 28.8633C-21.1401 29.3134 -20.3984 29.5391 -19.498 29.5391C-18.5979 29.539 -17.8632 29.3134 -17.2939 28.8633C-16.7247 28.4131 -16.3078 27.8374 -16.043 27.1357C-15.7782 26.4209 -15.6455 25.6664 -15.6455 24.8721C-15.6455 24.0909 -15.7782 23.3492 -16.043 22.6475C-16.3078 21.9326 -16.7247 21.3568 -17.2939 20.9199C-17.8632 20.4698 -18.5979 20.2442 -19.498 20.2441ZM94.6738 20.2441C93.7735 20.2442 93.0318 20.4698 92.4492 20.9199C91.8801 21.3568 91.463 21.9327 91.1982 22.6475C90.9335 23.3492 90.8008 24.0909 90.8008 24.8721C90.8008 25.6663 90.9335 26.4209 91.1982 27.1357C91.463 27.8373 91.8801 28.4132 92.4492 28.8633C93.0318 29.3134 93.7735 29.5391 94.6738 29.5391C95.5741 29.5391 96.3086 29.3134 96.8779 28.8633C97.4473 28.4131 97.8651 27.8375 98.1299 27.1357C98.3946 26.4209 98.5263 25.6663 98.5264 24.8721C98.5264 24.091 98.3946 23.3491 98.1299 22.6475C97.8651 21.9325 97.4473 21.3568 96.8779 20.9199C96.3086 20.4698 95.5741 20.2441 94.6738 20.2441ZM207.954 20.2441C207.054 20.2441 206.312 20.4698 205.729 20.9199C205.16 21.3568 204.743 21.9327 204.479 22.6475C204.214 23.3492 204.081 24.0909 204.081 24.8721C204.081 25.6663 204.214 26.4209 204.479 27.1357C204.743 27.8373 205.16 28.4132 205.729 28.8633C206.312 29.3134 207.054 29.5391 207.954 29.5391C208.854 29.5391 209.589 29.3134 210.158 28.8633C210.728 28.4131 211.145 27.8375 211.41 27.1357C211.675 26.4209 211.807 25.6663 211.807 24.8721C211.807 24.091 211.675 23.3491 211.41 22.6475C211.145 21.9325 210.728 21.3568 210.158 20.9199C209.589 20.4698 208.854 20.2441 207.954 20.2441ZM-55.9932 26.4209H-52.5322L-54.2627 20.3945L-55.9932 26.4209ZM58.1797 26.4209H61.6396L59.9092 20.3945L58.1797 26.4209ZM171.46 26.4209H174.92L173.189 20.3945L171.46 26.4209ZM-81.2363 24.5742H-79.3096C-78.6741 24.5742 -78.1308 24.5147 -77.6807 24.3955C-77.2176 24.2631 -76.8672 24.0508 -76.6289 23.7598C-76.3774 23.4553 -76.251 23.0382 -76.251 22.5088C-76.251 21.9792 -76.3773 21.5686 -76.6289 21.2773C-76.8672 20.9729 -77.2175 20.7608 -77.6807 20.6416C-78.1308 20.5092 -78.6741 20.4434 -79.3096 20.4434H-81.2363V24.5742ZM32.9365 24.5742H34.8623C35.4978 24.5742 36.0411 24.5147 36.4912 24.3955C36.9546 24.2631 37.3056 24.051 37.5439 23.7598C37.7954 23.4553 37.9208 23.0382 37.9209 22.5088C37.9209 21.9793 37.7954 21.5686 37.5439 21.2773C37.3056 20.9728 36.9546 20.7608 36.4912 20.6416C36.041 20.5092 35.4978 20.4434 34.8623 20.4434H32.9365V24.5742ZM146.217 24.5742H148.143C148.778 24.5742 149.321 24.5147 149.771 24.3955C150.235 24.2631 150.586 24.051 150.824 23.7598C151.076 23.4553 151.201 23.0382 151.201 22.5088C151.201 21.9793 151.076 21.5686 150.824 21.2773C150.586 20.9728 150.235 20.7608 149.771 20.6416C149.321 20.5092 148.778 20.4434 148.143 20.4434H146.217V24.5742ZM-41.9492 0.675781C-40.8503 0.675781 -39.8766 0.867031 -39.0293 1.25098C-38.1687 1.6217 -37.4468 2.13878 -36.8643 2.80078C-36.2819 3.46269 -35.8449 4.23712 -35.5537 5.12402C-35.2492 5.99771 -35.0967 6.93102 -35.0967 7.92383C-35.0967 9.27431 -35.362 10.4997 -35.8916 11.5986C-36.4212 12.6975 -37.1954 13.5783 -38.2148 14.2402C-39.2343 14.889 -40.4796 15.2129 -41.9492 15.2129C-43.4185 15.2128 -44.6696 14.8888 -45.7021 14.2402C-46.7216 13.5782 -47.4968 12.6975 -48.0264 11.5986C-48.556 10.4997 -48.8203 9.27431 -48.8203 7.92383C-48.8203 6.93103 -48.675 5.9977 -48.3838 5.12402C-48.0793 4.237 -47.6352 3.46275 -47.0527 2.80078C-46.4702 2.13879 -45.7555 1.6217 -44.9082 1.25098C-44.0477 0.867061 -43.0612 0.675826 -41.9492 0.675781ZM-12.0879 0.675781C-11.0552 0.675781 -10.1347 0.880637 -9.32715 1.29102C-8.51951 1.70146 -7.88332 2.26453 -7.41992 2.97949C-6.94347 3.69435 -6.70508 4.50221 -6.70508 5.40234H-9.72461C-9.77757 4.74034 -10.0085 4.22326 -10.4189 3.85254C-10.8161 3.48191 -11.4055 3.29692 -12.1865 3.29688C-12.9543 3.29688 -13.5437 3.43592 -13.9541 3.71387C-14.3645 3.99191 -14.5703 4.34292 -14.5703 4.7666C-14.5703 5.16379 -14.4241 5.47512 -14.1328 5.7002C-13.8416 5.92514 -13.4578 6.11028 -12.9814 6.25586C-12.4916 6.40148 -11.9618 6.54047 -11.3926 6.67285C-10.8102 6.79198 -10.2342 6.94459 -9.66504 7.12988C-9.09572 7.31524 -8.57234 7.56701 -8.0957 7.88477C-7.60591 8.20247 -7.21509 8.6258 -6.92383 9.15527C-6.63255 9.67163 -6.48731 10.334 -6.4873 11.1416C-6.4873 12.4258 -6.97006 13.4257 -7.93652 14.1406C-8.903 14.8556 -10.2602 15.2129 -12.0078 15.2129C-13.0802 15.2129 -14.0404 15.008 -14.8877 14.5977C-15.735 14.1872 -16.41 13.6241 -16.9131 12.9092C-17.4161 12.1943 -17.6878 11.3802 -17.7275 10.4668H-14.6895C-14.6365 10.9036 -14.4839 11.281 -14.2324 11.5986C-13.9809 11.9163 -13.6559 12.1609 -13.2588 12.333C-12.8484 12.505 -12.3917 12.5918 -11.8887 12.5918C-11.2135 12.5918 -10.644 12.479 -10.1807 12.2539C-9.71737 12.0156 -9.48535 11.6447 -9.48535 11.1416C-9.48536 10.7842 -9.63167 10.4999 -9.92285 10.2881C-10.2141 10.0762 -10.6048 9.90388 -11.0947 9.77148C-11.5712 9.63912 -12.094 9.50638 -12.6631 9.37402C-13.2324 9.24162 -13.809 9.08282 -14.3916 8.89746C-14.9608 8.69887 -15.4907 8.43446 -15.9805 8.10352C-16.457 7.77258 -16.8406 7.34194 -17.1318 6.8125C-17.4231 6.26967 -17.5693 5.58747 -17.5693 4.7666C-17.5693 3.9722 -17.3374 3.27017 -16.874 2.66113C-16.3974 2.03896 -15.7484 1.55614 -14.9277 1.21191C-14.0937 0.854478 -13.1469 0.675826 -12.0879 0.675781ZM47.248 0.675781C48.347 0.675781 49.3206 0.867016 50.168 1.25098C51.0285 1.62169 51.7495 2.13881 52.332 2.80078C52.9146 3.46278 53.3523 4.23695 53.6436 5.12402C53.948 5.99769 54.0996 6.93105 54.0996 7.92383C54.0996 9.27431 53.8353 10.4997 53.3057 11.5986C52.7761 12.6975 52.0009 13.5783 50.9814 14.2402C49.9621 14.8888 48.7174 15.2129 47.248 15.2129C45.7787 15.2129 44.5277 14.8888 43.4951 14.2402C42.4757 13.5783 41.7005 12.6975 41.1709 11.5986C40.6413 10.4997 40.377 9.27431 40.377 7.92383C40.377 6.93101 40.5222 5.99772 40.8135 5.12402C41.118 4.23696 41.562 3.46278 42.1445 2.80078C42.7271 2.13878 43.4417 1.6217 44.2891 1.25098C45.1496 0.867073 46.136 0.675802 47.248 0.675781ZM77.1094 0.675781C78.1421 0.675781 79.0625 0.88058 79.8701 1.29102C80.6778 1.70146 81.313 2.26453 81.7764 2.97949C82.253 3.69443 82.4912 4.50206 82.4912 5.40234H79.4727C79.4197 4.74034 79.1878 4.22326 78.7773 3.85254C78.3802 3.48219 77.7913 3.29695 77.0107 3.29688C76.243 3.29688 75.6536 3.43599 75.2432 3.71387C74.8327 3.99191 74.627 4.34292 74.627 4.7666C74.627 5.16379 74.7732 5.47512 75.0645 5.7002C75.3557 5.92512 75.7394 6.11029 76.2158 6.25586C76.7057 6.4015 77.2354 6.54045 77.8047 6.67285C78.3872 6.79199 78.963 6.94456 79.5322 7.12988C80.1015 7.31524 80.6249 7.56701 81.1016 7.88477C81.5913 8.20248 81.9822 8.62581 82.2734 9.15527C82.5647 9.67163 82.71 10.334 82.71 11.1416C82.71 12.4258 82.2271 13.4257 81.2607 14.1406C80.2943 14.8555 78.9369 15.2128 77.1895 15.2129C76.1172 15.2129 75.1568 15.008 74.3096 14.5977C73.4622 14.1872 72.7863 13.6241 72.2832 12.9092C71.7802 12.1944 71.5095 11.3801 71.4697 10.4668H74.5078C74.5608 10.9036 74.7134 11.281 74.9648 11.5986C75.2163 11.9162 75.5405 12.1609 75.9375 12.333C76.3479 12.5051 76.8055 12.5918 77.3086 12.5918C77.9836 12.5917 78.5533 12.4789 79.0166 12.2539C79.4798 12.0156 79.7109 11.6446 79.7109 11.1416C79.7109 10.7843 79.5655 10.4999 79.2744 10.2881C78.9831 10.0762 78.5924 9.90388 78.1025 9.77148C77.6259 9.63908 77.1025 9.50642 76.5332 9.37402C75.964 9.24164 75.3881 9.08278 74.8057 8.89746C74.2364 8.69888 73.7066 8.43447 73.2168 8.10352C72.7403 7.7726 72.3567 7.34192 72.0654 6.8125C71.7742 6.26967 71.6279 5.58747 71.6279 4.7666C71.6279 3.9722 71.8598 3.27017 72.3232 2.66113C72.7998 2.03896 73.4488 1.55612 74.2695 1.21191C75.1036 0.854454 76.0502 0.675802 77.1094 0.675781ZM136.445 0.675781C137.544 0.675785 138.517 0.867173 139.364 1.25098C140.225 1.6217 140.947 2.13878 141.529 2.80078C142.112 3.46272 142.549 4.23705 142.84 5.12402C143.144 5.99772 143.297 6.93101 143.297 7.92383C143.297 9.27431 143.033 10.4997 142.503 11.5986C141.973 12.6975 141.198 13.5782 140.179 14.2402C139.159 14.8888 137.915 15.2129 136.445 15.2129C134.976 15.2129 133.724 14.889 132.691 14.2402C131.672 13.5783 130.898 12.6975 130.368 11.5986C129.839 10.4997 129.573 9.27431 129.573 7.92383C129.573 6.93101 129.72 5.99772 130.011 5.12402C130.315 4.23715 130.758 3.46268 131.341 2.80078C131.923 2.13878 132.639 1.6217 133.486 1.25098C134.347 0.867106 135.333 0.675781 136.445 0.675781ZM166.307 0.675781C167.339 0.675783 168.26 0.880577 169.067 1.29102C169.875 1.70145 170.51 2.26457 170.974 2.97949C171.45 3.69441 171.688 4.5021 171.688 5.40234H168.67C168.617 4.74034 168.385 4.22326 167.975 3.85254C167.577 3.48205 166.988 3.29688 166.207 3.29688C165.439 3.29691 164.85 3.43586 164.439 3.71387C164.029 3.99189 163.824 4.34298 163.824 4.7666C163.824 5.16374 163.97 5.47513 164.261 5.7002C164.552 5.92528 164.936 6.11022 165.413 6.25586C165.903 6.40149 166.433 6.54046 167.002 6.67285C167.584 6.792 168.16 6.94455 168.729 7.12988C169.299 7.31524 169.822 7.56701 170.299 7.88477C170.789 8.20249 171.179 8.62582 171.471 9.15527C171.762 9.67163 171.907 10.334 171.907 11.1416C171.907 12.4259 171.424 13.4257 170.457 14.1406C169.491 14.8554 168.133 15.2129 166.386 15.2129C165.314 15.2128 164.354 15.0079 163.507 14.5977C162.659 14.1872 161.984 13.6241 161.48 12.9092C160.977 12.1943 160.706 11.3802 160.666 10.4668H163.705C163.758 10.9035 163.911 11.281 164.162 11.5986C164.414 11.9162 164.738 12.1609 165.135 12.333C165.545 12.5051 166.002 12.5918 166.505 12.5918C167.18 12.5918 167.75 12.4789 168.213 12.2539C168.676 12.0156 168.908 11.6447 168.908 11.1416C168.908 10.7843 168.763 10.4999 168.472 10.2881C168.18 10.0763 167.79 9.90388 167.3 9.77148C166.823 9.63908 166.3 9.50642 165.73 9.37402C165.161 9.24164 164.585 9.08279 164.003 8.89746C163.434 8.69889 162.904 8.43445 162.414 8.10352C161.937 7.77253 161.553 7.34207 161.262 6.8125C160.97 6.26967 160.825 5.58747 160.825 4.7666C160.825 3.9722 161.057 3.27017 161.521 2.66113C161.997 2.03897 162.646 1.55611 163.467 1.21191C164.301 0.85444 165.247 0.675781 166.307 0.675781ZM-80.4678 3.49512H-87.2598V6.65332H-81.2617V9.15527H-87.2598V12.3926H-80.3877V14.8955H-90.1387V0.993164H-80.4678V3.49512ZM-73.3184 0.993164C-71.8487 0.993174 -70.6044 1.2982 -69.585 1.90723C-68.5655 2.50302 -67.7903 3.32322 -67.2607 4.36914C-66.7311 5.40186 -66.4668 6.58756 -66.4668 7.9248C-66.4669 9.27488 -66.7314 10.4728 -67.2607 11.5186C-67.7903 12.5645 -68.5655 13.3929 -69.585 14.002C-70.6044 14.5976 -71.8489 14.8955 -73.3184 14.8955H-78.5215V0.993164H-73.3184ZM-62.0078 14.8955H-64.8877V0.993164H-62.0078V14.8955ZM-49.0771 3.49512H-53.4072V14.8955H-56.2861V3.49512H-60.6162V0.993164H-49.0771V3.49512ZM-28.7012 0.993164C-27.4963 0.993164 -26.4433 1.13841 -25.543 1.42969C-24.6294 1.72097 -23.9211 2.19835 -23.418 2.86035C-22.9018 3.52224 -22.6436 4.42226 -22.6436 5.56055C-22.6436 6.68584 -22.9017 7.5865 -23.418 8.26172C-23.8452 8.82382 -24.4214 9.2501 -25.1445 9.54492L-22.5439 14.8955H-25.8213L-27.8545 10.1025C-28.1277 10.1195 -28.4102 10.1289 -28.7012 10.1289H-30.627V14.8955H-33.5068V0.993164H-28.7012ZM8.72949 3.49512H1.9375V6.65332H7.93555V9.15527H1.9375V12.3926H8.80957V14.8955H-0.942383V0.993164H8.72949V3.49512ZM15.8789 0.993164C17.3484 0.993203 18.5929 1.29822 19.6123 1.90723C20.6316 2.50295 21.406 3.32342 21.9355 4.36914C22.4651 5.40186 22.7305 6.58756 22.7305 7.9248C22.7304 9.27501 22.465 10.4728 21.9355 11.5186C21.4059 12.5645 20.6318 13.3929 19.6123 14.002C18.5929 14.5976 17.3483 14.8955 15.8789 14.8955H10.6758V0.993164H15.8789ZM27.1895 14.8955H24.3096V0.993164H27.1895V14.8955ZM40.1201 3.49512H35.79V14.8955H32.9102V3.49512H28.5811V0.993164H40.1201V3.49512ZM60.4961 0.993164C61.7009 0.993164 62.754 1.13841 63.6543 1.42969C64.5678 1.72097 65.2762 2.1984 65.7793 2.86035C66.2954 3.52223 66.5536 4.42232 66.5537 5.56055C66.5537 6.68578 66.2955 7.58651 65.7793 8.26172C65.3521 8.82378 64.7758 9.2501 64.0527 9.54492L66.6523 14.8955H63.376L61.3428 10.1025C61.0695 10.1195 60.7872 10.1289 60.4961 10.1289H58.5693V14.8955H55.6904V0.993164H60.4961ZM97.9268 3.49512H91.1348V6.65332H97.1328V9.15527H91.1348V12.3926H98.0059V14.8955H88.2549V0.993164H97.9268V3.49512ZM105.075 0.993164C106.545 0.993164 107.79 1.29819 108.81 1.90723C109.829 2.50296 110.603 3.32343 111.133 4.36914C111.662 5.40186 111.928 6.58756 111.928 7.9248C111.928 9.27497 111.662 10.4728 111.133 11.5186C110.603 12.5645 109.829 13.3929 108.81 14.002C107.79 14.5977 106.545 14.8955 105.075 14.8955H99.8721V0.993164H105.075ZM116.387 14.8955H113.507V0.993164H116.387V14.8955ZM129.316 3.49512H124.987V14.8955H122.107V3.49512H117.778V0.993164H129.316V3.49512ZM149.693 0.993164C150.898 0.993171 151.95 1.13852 152.851 1.42969C153.764 1.72097 154.472 2.19836 154.976 2.86035C155.492 3.52227 155.751 4.42211 155.751 5.56055C155.751 6.68595 155.492 7.58648 154.976 8.26172C154.548 8.82391 153.972 9.2501 153.249 9.54492L155.85 14.8955H152.573L150.54 10.1025C150.267 10.1195 149.984 10.1289 149.693 10.1289H147.767V14.8955H144.887V0.993164H149.693ZM-41.9492 3.29688C-42.8494 3.29694 -43.5904 3.52256 -44.1729 3.97266C-44.7421 4.40957 -45.16 4.98525 -45.4248 5.7002C-45.6895 6.40167 -45.8212 7.14297 -45.8213 7.92383C-45.8213 8.71821 -45.6896 9.47353 -45.4248 10.1885C-45.16 10.8902 -44.7422 11.4659 -44.1729 11.916C-43.5904 12.3661 -42.8493 12.5917 -41.9492 12.5918C-41.0489 12.5918 -40.3135 12.3662 -39.7441 11.916C-39.175 11.4659 -38.7579 10.8901 -38.4932 10.1885C-38.2284 9.47352 -38.0957 8.71823 -38.0957 7.92383C-38.0958 7.14291 -38.2285 6.40172 -38.4932 5.7002C-38.7579 4.98539 -39.175 4.40954 -39.7441 3.97266C-40.3135 3.52249 -41.0489 3.29688 -41.9492 3.29688ZM47.248 3.29688C46.3478 3.2969 45.606 3.52252 45.0234 3.97266C44.4544 4.40953 44.0372 4.98545 43.7725 5.7002C43.5078 6.40169 43.376 7.14294 43.376 7.92383C43.376 8.71823 43.5077 9.47352 43.7725 10.1885C44.0372 10.89 44.4543 11.4659 45.0234 11.916C45.606 12.3661 46.3478 12.5918 47.248 12.5918C48.1484 12.5918 48.8838 12.3662 49.4531 11.916C50.0223 11.4659 50.4394 10.89 50.7041 10.1885C50.9689 9.47352 51.1006 8.71823 51.1006 7.92383C51.1005 7.14294 50.9688 6.40169 50.7041 5.7002C50.4394 4.98545 50.0222 4.40953 49.4531 3.97266C48.8838 3.52249 48.1484 3.29688 47.248 3.29688ZM136.445 3.29688C135.545 3.29688 134.803 3.52249 134.221 3.97266C133.652 4.40954 133.234 4.9854 132.97 5.7002C132.705 6.40171 132.572 7.14292 132.572 7.92383C132.572 8.71823 132.705 9.47352 132.97 10.1885C133.234 10.8901 133.652 11.4659 134.221 11.916C134.803 12.3662 135.545 12.5918 136.445 12.5918C137.346 12.5918 138.08 12.3661 138.649 11.916C139.219 11.4659 139.637 10.8902 139.901 10.1885C140.166 9.47353 140.298 8.71821 140.298 7.92383C140.298 7.14297 140.166 6.40167 139.901 5.7002C139.637 4.98525 139.219 4.40957 138.649 3.97266C138.08 3.5225 137.346 3.29688 136.445 3.29688ZM-75.6416 12.3926H-73.3184C-72.4182 12.3926 -71.6835 12.1876 -71.1143 11.7773C-70.5449 11.3537 -70.1271 10.8041 -69.8623 10.1289C-69.5976 9.45382 -69.4659 8.719 -69.4658 7.9248C-69.4658 7.14364 -69.5975 6.4145 -69.8623 5.73926C-70.1271 5.06413 -70.545 4.52172 -71.1143 4.11133C-71.6835 3.70096 -72.4181 3.49513 -73.3184 3.49512H-75.6416V12.3926ZM13.5547 12.3926H15.8789C16.779 12.3925 17.5138 12.1877 18.083 11.7773C18.6523 11.3537 19.0692 10.8041 19.334 10.1289C19.5987 9.4538 19.7314 8.71902 19.7314 7.9248C19.7314 7.14364 19.5988 6.4145 19.334 5.73926C19.0692 5.06425 18.6522 4.52167 18.083 4.11133C17.5137 3.70093 16.7791 3.49516 15.8789 3.49512H13.5547V12.3926ZM102.752 12.3926H105.075C105.976 12.3926 106.711 12.1878 107.28 11.7773C107.85 11.3537 108.266 10.8041 108.531 10.1289C108.796 9.4538 108.929 8.71902 108.929 7.9248C108.929 7.14364 108.796 6.4145 108.531 5.73926C108.266 5.06427 107.849 4.52167 107.28 4.11133C106.711 3.70089 105.976 3.49512 105.075 3.49512H102.752V12.3926ZM-30.627 7.62598H-28.7012C-28.0657 7.62598 -27.5224 7.56643 -27.0723 7.44727C-26.609 7.31488 -26.2578 7.1037 -26.0195 6.8125C-25.768 6.50798 -25.6426 6.09015 -25.6426 5.56055C-25.6426 5.03136 -25.7682 4.62126 -26.0195 4.33008C-26.2578 4.02558 -26.6089 3.8135 -27.0723 3.69434C-27.5224 3.56194 -28.0657 3.49512 -28.7012 3.49512H-30.627V7.62598ZM58.5693 7.62598H60.4961C61.1316 7.62598 61.6748 7.56643 62.125 7.44727C62.5882 7.31486 62.9395 7.1037 63.1777 6.8125C63.4293 6.50798 63.5547 6.09014 63.5547 5.56055C63.5546 5.03143 63.429 4.62125 63.1777 4.33008C62.9395 4.02562 62.5883 3.81351 62.125 3.69434C61.6748 3.56194 61.1316 3.49512 60.4961 3.49512H58.5693V7.62598ZM147.767 7.62598H149.693C150.329 7.62597 150.872 7.56642 151.322 7.44727C151.785 7.31491 152.136 7.10347 152.374 6.8125C152.626 6.50798 152.752 6.09015 152.752 5.56055C152.752 5.0312 152.625 4.62127 152.374 4.33008C152.136 4.02566 151.785 3.81352 151.322 3.69434C150.872 3.56194 150.329 3.49512 149.693 3.49512H147.767V7.62598ZM-18.6475 3.03906C-18.6475 3.79359 -18.8596 4.36316 -19.2832 4.74707C-19.7068 5.11773 -20.2764 5.3027 -20.9912 5.30273V3.99219C-20.6603 3.99215 -20.4355 3.90549 -20.3164 3.7334C-20.1974 3.56136 -20.1377 3.33009 -20.1377 3.03906H-21.6865V0H-18.6475V3.03906ZM70.5488 3.03906C70.5488 3.79355 70.3376 4.36316 69.9141 4.74707C69.4905 5.11772 68.9208 5.30266 68.2061 5.30273V3.99219C68.5368 3.99212 68.7617 3.90545 68.8809 3.7334C68.9998 3.56137 69.0595 3.33003 69.0596 3.03906H67.5107V0H70.5488V3.03906ZM159.746 3.03906C159.746 3.79359 159.534 4.36316 159.11 4.74707C158.687 5.11759 158.117 5.30273 157.402 5.30273V3.99219C157.733 3.99219 157.959 3.90552 158.078 3.7334C158.197 3.56138 158.257 3.32997 158.257 3.03906H156.708V0H159.746V3.03906Z" fill="url(#paint1_linear_59_184)"/>
</g>
<rect x="0.5" y="0.5" width="63" height="49" rx="24.5" stroke="url(#paint2_linear_59_184)"/>
<defs>
<linearGradient id="paint0_linear_59_184" x1="32" y1="50" x2="32" y2="2.17943e-06" gradientUnits="userSpaceOnUse">
<stop stop-color="#16231A"/>
<stop offset="1"/>
</linearGradient>
<linearGradient id="paint1_linear_59_184" x1="6.21143" y1="0" x2="6.21143" y2="50" gradientUnits="userSpaceOnUse">
<stop stop-opacity="0.5"/>
<stop offset="0.283654" stop-color="#54E0A6" stop-opacity="0.783654"/>
<stop offset="0.5" stop-color="white"/>
<stop offset="0.663462" stop-color="#E0A854" stop-opacity="0.783654"/>
<stop offset="0.855769" stop-color="#9688FF" stop-opacity="0.639423"/>
<stop offset="1" stop-opacity="0.5"/>
</linearGradient>
<linearGradient id="paint2_linear_59_184" x1="32" y1="0" x2="32" y2="50" gradientUnits="userSpaceOnUse">
<stop stop-color="white"/>
<stop offset="1" stop-color="#999999" stop-opacity="0.3"/>
</linearGradient>
<clipPath id="clip0_59_184">
<rect width="64" height="50" rx="25" fill="white"/>
</clipPath>
</defs>
</svg>
